<?xml version="1.0" encoding="utf-8"?>
<!-- Generator: Adobe Illustrator 27.5.0, SVG Export Plug-In . SVG Version: 6.00 Build 0)  -->
<svg version="1.1" xmlns="http://www.w3.org/2000/svg" xmlns:xlink="http://www.w3.org/1999/xlink" x="0px" y="0px"
	 viewBox="0 0 500 500" style="enable-background:new 0 0 500 500;" xml:space="preserve">
<g id="BACKGROUND">
	<rect style="fill:#FFFFFF;" width="500" height="500"/>
	<path style="opacity:0.35;fill:#B4E7E9;" d="M86.928,435.438h252.893c58.173-36.401,103.665-94.545,101.802-166.772
		c-2.214-85.85-70.914-175.766-156.254-183.924C158.779,72.641,91.64,249.617,85.543,265.687
		c-12.762,33.64-42.617,112.336-1.628,166.02C84.894,432.988,85.902,434.226,86.928,435.438z"/>
</g>
<g id="OBJECTS">
	<g>
		<g>
			
				<ellipse transform="matrix(0.7071 -0.7071 0.7071 0.7071 -24.1599 207.8163)" style="fill:#4F52A9;" cx="238.777" cy="133.072" rx="64.729" ry="64.729"/>
			
				<ellipse transform="matrix(0.7071 -0.7071 0.7071 0.7071 -24.1599 207.8163)" style="fill:#6168BD;" cx="238.777" cy="133.072" rx="54.579" ry="54.579"/>
			<path style="fill:#FAF2E6;" d="M288.732,133.072c0,27.589-22.365,49.955-49.956,49.955c-27.59,0-49.955-22.366-49.955-49.955
				c0-27.59,22.365-49.957,49.955-49.957C266.367,83.116,288.732,105.482,288.732,133.072z"/>
			<path style="fill:#343737;" d="M238.776,83.116c27.59,0,49.956,22.366,49.956,49.957c0,27.589-22.365,49.955-49.956,49.955
				c-27.59,0-49.955-22.366-49.955-49.955C188.821,105.482,211.186,83.116,238.776,83.116 M238.776,81.093
				c-28.661,0-51.978,23.318-51.978,51.979c0,28.661,23.317,51.978,51.978,51.978c28.661,0,51.978-23.317,51.978-51.978
				C290.755,104.411,267.438,81.093,238.776,81.093L238.776,81.093z"/>
			<path style="fill:#4F52A9;" d="M249.477,175.027c0.126,0.544-0.214,1.086-0.759,1.211l0,0c-0.544,0.125-1.088-0.215-1.211-0.76
				l-9.711-42.392c-0.124-0.546,0.216-1.088,0.76-1.212l0,0c0.545-0.125,1.088,0.216,1.212,0.76L249.477,175.027z"/>
			<path style="fill:#343737;" d="M238.776,88.084c-0.994,0-1.8,0.806-1.8,1.8v5.4c0,0.994,0.806,1.8,1.8,1.8
				c0.994,0,1.8-0.806,1.8-1.8v-5.4C240.577,88.89,239.771,88.084,238.776,88.084z M218.742,94.77
				c-0.497-0.861-1.598-1.156-2.459-0.659c-0.861,0.497-1.156,1.598-0.659,2.459l2.701,4.677c0.497,0.861,1.598,1.156,2.459,0.659
				c0.861-0.497,1.156-1.598,0.659-2.459L218.742,94.77z M206.953,112.619l-4.677-2.701c-0.861-0.497-1.962-0.202-2.459,0.659
				c-0.497,0.861-0.202,1.962,0.659,2.459l4.677,2.7c0.861,0.497,1.962,0.202,2.459-0.659
				C208.108,114.217,207.813,113.117,206.953,112.619z M202.79,133.072c0-0.994-0.806-1.8-1.8-1.8h-5.4c-0.994,0-1.8,0.806-1.8,1.8
				c0,0.994,0.806,1.8,1.8,1.8h5.4C201.984,134.872,202.79,134.066,202.79,133.072z M205.152,150.406l-4.677,2.7
				c-0.861,0.497-1.156,1.598-0.659,2.459c0.497,0.861,1.598,1.156,2.459,0.659l4.677-2.701c0.861-0.497,1.156-1.598,0.659-2.459
				C207.115,150.204,206.014,149.909,205.152,150.406z M220.783,164.237c-0.861-0.497-1.962-0.202-2.459,0.659l-2.701,4.677
				c-0.497,0.861-0.202,1.962,0.659,2.459c0.861,0.497,1.962,0.202,2.459-0.659l2.7-4.677
				C221.939,165.835,221.644,164.734,220.783,164.237z M238.776,169.058c-0.994,0-1.8,0.805-1.8,1.8v5.401
				c0,0.994,0.806,1.8,1.8,1.8c0.994,0,1.8-0.806,1.8-1.8v-5.401C240.577,169.864,239.771,169.058,238.776,169.058z
				 M259.229,164.896c-0.497-0.861-1.598-1.156-2.459-0.659c-0.861,0.497-1.156,1.598-0.659,2.459l2.7,4.677
				c0.497,0.861,1.598,1.156,2.459,0.659c0.861-0.497,1.156-1.598,0.659-2.459L259.229,164.896z M277.078,153.106l-4.677-2.7
				c-0.861-0.497-1.962-0.202-2.459,0.659c-0.497,0.861-0.202,1.962,0.659,2.459l4.677,2.701c0.861,0.497,1.962,0.202,2.459-0.659
				C278.234,154.704,277.939,153.603,277.078,153.106z M281.964,131.272h-5.401c-0.994,0-1.8,0.806-1.8,1.8
				c0,0.994,0.806,1.8,1.8,1.8h5.401c0.994,0,1.8-0.806,1.8-1.8C283.764,132.078,282.958,131.272,281.964,131.272z M272.401,115.737
				l4.677-2.7c0.861-0.497,1.156-1.598,0.658-2.459c-0.497-0.861-1.598-1.156-2.459-0.659l-4.677,2.701
				c-0.861,0.497-1.156,1.598-0.659,2.459C270.439,115.939,271.54,116.234,272.401,115.737z M261.27,94.112
				c-0.861-0.497-1.962-0.202-2.459,0.659l-2.7,4.677c-0.497,0.861-0.202,1.962,0.659,2.459c0.861,0.497,1.962,0.202,2.459-0.659
				l2.701-4.677C262.426,95.71,262.131,94.608,261.27,94.112z"/>
			<path style="fill:#343737;" d="M241.646,134.894L241.646,134.894c-0.767,1.276-2.422,1.689-3.698,0.923l-19.144-11.498
				c-1.276-0.766-1.689-2.422-0.923-3.698l0,0c0.767-1.276,2.422-1.689,3.698-0.923l19.144,11.498
				C241.999,131.962,242.412,133.618,241.646,134.894z"/>
			<path style="fill:#343737;" d="M237.882,135.68L237.882,135.68c-1.051-1.054-1.047-2.761,0.008-3.811l25.147-25.046
				c1.054-1.05,2.761-1.047,3.811,0.008l0,0c1.05,1.054,1.047,2.761-0.008,3.811l-25.147,25.046
				C240.639,136.738,238.932,136.734,237.882,135.68z"/>
			<circle style="fill:#4F52A9;" cx="238.776" cy="133.072" r="7.08"/>
			<path style="opacity:0.5;fill:#FFFFFF;" d="M238.776,83.116c-27.59,0-49.955,22.366-49.955,49.957
				c0,13.958,5.73,26.573,14.96,35.637l69.773-71.483C264.559,88.498,252.3,83.116,238.776,83.116z"/>
		</g>
		<g>
			<path style="fill:#FAF2E6;" d="M401.92,89.64c-0.475,0-0.942,0.024-1.407,0.062c0.738-2.08,1.145-4.32,1.145-6.655
				c0-10.988-8.908-19.895-19.896-19.895c-8.329,0-15.461,5.12-18.424,12.385c-1.725-0.655-3.593-1.019-5.549-1.019
				c-8.416,0-15.274,6.664-15.594,15.003c-7.235,2.008-12.547,8.638-12.547,16.513c0,9.466,7.674,17.14,17.141,17.14
				c9.466,0,45.833,0.135,55.13,0.135c9.297,0,16.835-7.537,16.835-16.834C418.755,97.177,411.217,89.64,401.92,89.64z"/>
			<polygon style="fill:#EC8B1E;" points="395.011,116.814 374.308,96.11 353.603,116.814 364.964,116.814 364.964,138.394 
				383.76,138.394 383.76,116.814 			"/>
		</g>
		<g>
			<g>
				<path style="fill:#FAF2E6;" d="M82.773,75.793c-10.288-0.114-18.722,8.135-18.838,18.426
					c-0.112,10.292,8.135,18.724,18.425,18.84c10.291,0.115,18.726-8.134,18.84-18.427C101.314,84.341,93.065,75.906,82.773,75.793z
					 M82.502,100.27c-3.227-0.036-5.814-2.681-5.778-5.909c0.036-3.228,2.681-5.815,5.908-5.779c3.228,0.036,5.816,2.682,5.78,5.909
					C88.376,97.719,85.73,100.306,82.502,100.27z"/>
				<path style="fill:#4F52A9;" d="M82.587,90.176c2.342,0.025,4.229,1.953,4.202,4.297c-0.024,2.343-1.954,4.229-4.298,4.202
					c-2.344-0.026-4.227-1.955-4.201-4.297C78.318,92.036,80.242,90.149,82.587,90.176 M82.619,87.112
					c-4.039-0.045-7.349,3.194-7.393,7.232c-0.046,4.04,3.194,7.35,7.231,7.395c4.041,0.046,7.352-3.192,7.396-7.232
					C89.898,90.467,86.66,87.157,82.619,87.112L82.619,87.112z"/>
				<path style="fill:#B4E7E9;" d="M106.475,95.902v-4.936l-4.437-1.138c-0.651-2.786-1.821-5.349-3.499-7.558l2.176-3.56
					l-3.476-3.491l-3.792,2.284c-2.188-1.411-4.663-2.292-7.327-2.767l-1.085-4.432h-4.936l-1.089,4.431
					c-2.648,0.473-5.118,1.405-7.302,2.807l-3.778-2.296l-3.491,3.476l2.116,3.519c-1.671,2.191-3.027,4.735-3.687,7.505
					l-4.43,1.094v4.936l4.016,0.982c0.357,3.087,1.476,5.964,3.07,8.466l-2.192,3.708l3.506,3.49l3.437-2.057
					c2.48,1.914,5.424,3.385,8.634,3.974l1.065,4.383h4.936l1.058-4.337c3.225-0.55,6.191-1.928,8.702-3.822l3.483,2.067
					l3.492-3.506l-2.22-3.702c1.628-2.494,2.599-5.375,2.986-8.476L106.475,95.902z M97.853,94.595
					c-0.093,8.428-7.026,15.209-15.455,15.116c-8.428-0.094-15.207-7.027-15.113-15.454c0.092-8.428,7.024-15.21,15.453-15.115
					C91.166,79.235,97.947,86.168,97.853,94.595z"/>
			</g>
			<g>
				<path style="fill:#FAF2E6;" d="M118.879,91.966c-6.461-0.727-12.29,3.922-13.018,10.385c-0.726,6.464,3.922,12.291,10.385,13.02
					c6.463,0.728,12.292-3.922,13.02-10.385C129.993,98.522,125.343,92.692,118.879,91.966z M117.15,107.338
					c-2.027-0.228-3.485-2.056-3.257-4.083c0.228-2.027,2.056-3.486,4.083-3.257c2.027,0.228,3.486,2.057,3.258,4.084
					C121.005,106.109,119.177,107.567,117.15,107.338z"/>
				<path style="fill:#4F52A9;" d="M117.846,100.997c1.471,0.165,2.534,1.498,2.369,2.969c-0.164,1.471-1.498,2.535-2.97,2.368
					c-1.472-0.166-2.533-1.498-2.368-2.969C115.043,101.895,116.373,100.831,117.846,100.997 M118.062,99.073
					c-2.537-0.286-4.825,1.54-5.109,4.076c-0.286,2.537,1.54,4.825,4.075,5.11c2.538,0.286,4.826-1.539,5.111-4.076
					C122.424,101.646,120.6,99.358,118.062,99.073L118.062,99.073z"/>
				<path style="fill:#B74352;" d="M132.501,106.12l0.314-3.104l-2.717-0.998c-0.232-1.793-0.804-3.479-1.718-4.975l1.595-2.1
					l-1.963-2.417l-2.53,1.195c-1.286-1.026-2.785-1.738-4.43-2.206l-0.4-2.856l-3.104-0.314l-0.967,2.717
					c-1.695,0.128-3.308,0.557-4.77,1.3l-2.229-1.684l-2.416,1.963l1.106,2.348c-1.19,1.271-2.205,2.784-2.796,4.484l-2.855,0.406
					l-0.314,3.104l2.463,0.873c0.028,1.964,0.548,3.843,1.391,5.519l-1.614,2.192l1.982,2.418l2.292-1.074
					c1.437,1.361,3.195,2.474,5.175,3.049l0.39,2.823l3.103,0.315l0.942-2.66c2.063-0.14,4.015-0.818,5.715-1.848l2.058,1.521
					l2.419-1.982l-1.16-2.469c1.183-1.464,1.977-3.214,2.418-5.139L132.501,106.12z M127.163,104.748
					c-0.596,5.294-5.387,9.115-10.681,8.52c-5.293-0.596-9.114-5.387-8.518-10.68c0.595-5.293,5.385-9.116,10.679-8.519
					C123.937,94.665,127.759,99.456,127.163,104.748z"/>
			</g>
			<g>
				<path style="fill:#FAF2E6;" d="M63.109,120.281c-3.067,3.843-2.437,9.446,1.407,12.513c3.845,3.067,9.446,2.438,12.514-1.406
					c3.068-3.844,2.438-9.447-1.406-12.514C71.779,115.806,66.176,116.436,63.109,120.281z M72.252,127.576
					c-0.962,1.205-2.719,1.403-3.925,0.441c-1.206-0.962-1.403-2.719-0.441-3.925c0.962-1.206,2.72-1.404,3.925-0.441
					C73.017,124.613,73.215,126.37,72.252,127.576z"/>
				<path style="fill:#4F52A9;" d="M68.474,124.578c0.697-0.875,1.979-1.019,2.854-0.321c0.876,0.698,1.02,1.979,0.32,2.855
					c-0.699,0.876-1.979,1.018-2.854,0.32C67.92,126.733,67.775,125.454,68.474,124.578 M67.329,123.665
					c-1.204,1.509-0.957,3.708,0.552,4.911c1.509,1.205,3.708,0.957,4.912-0.551c1.205-1.509,0.958-3.709-0.551-4.912
					C70.732,121.908,68.533,122.156,67.329,123.665L67.329,123.665z"/>
				<path style="fill:#4F52A9;" d="M77.652,117.259l-1.86-1.451l-1.733,1.337c-1.241-0.573-2.551-0.886-3.876-0.903l-0.702-1.866
					l-2.337,0.284l-0.254,2.1c-1.174,0.41-2.234,1.083-3.196,1.948l-1.989-0.894l-1.451,1.86l1.35,1.712
					c-0.6,1.137-0.975,2.341-1.088,3.577l-1.975,0.749l0.284,2.337l1.948,0.237c0.335,1.274,0.895,2.532,1.744,3.595l-0.89,1.991
					l1.86,1.451l1.55-1.225c1.268,0.773,2.681,1.196,4.092,1.331l0.753,1.916l2.345-0.295l0.235-1.9
					c1.45-0.372,2.87-1.049,4.035-2.085l1.964,0.887l1.451-1.86l-1.323-1.673c0.741-1.377,1.093-2.899,1.117-4.402l1.802-0.705
					l-0.295-2.346l-2.047-0.251c-0.461-1.346-1.261-2.559-2.316-3.616L77.652,117.259z M74.625,120.124
					c3.148,2.512,3.666,7.117,1.154,10.266c-2.512,3.148-7.117,3.665-10.265,1.153c-3.149-2.512-3.667-7.117-1.154-10.265
					C66.873,118.13,71.478,117.612,74.625,120.124z"/>
			</g>
		</g>
	</g>
	<g>
		<path style="fill:#FBCA8C;" d="M340.929,152.528h-95.806c-1.037,0-2.699,0.051-2.699,1.089v74.202
			c0,1.036,1.661,2.162,2.699,2.162h52.802l41.438,18.472l-8.487-18.472h10.052c1.038,0,1.218-1.126,1.218-2.162v-74.202
			C342.147,152.579,341.967,152.528,340.929,152.528z"/>
		<path style="fill:#FFEAAC;" d="M173.039,172.963h95.807c1.037,0,1.492,0.383,1.492,1.422v74.203c0,1.036-0.454,2.797-1.492,2.797
			h-52.803l-41.438,18.472l8.488-18.472h-10.053c-1.037,0-2.424-1.761-2.424-2.797v-74.203
			C170.615,173.346,172.002,172.963,173.039,172.963z"/>
		<g>
			<path style="fill:#EC8B1E;" d="M246.73,215.755c0,0.407-0.33,0.737-0.737,0.737h-47.967c-0.407,0-0.737-0.33-0.737-0.737v-6.643
				c0-0.407,0.33-0.737,0.737-0.737h47.967c0.407,0,0.737,0.33,0.737,0.737V215.755z"/>
			<path style="fill:#FFFFFF;" d="M243.779,233.332c0,0.407-0.093,0.87-0.501,0.87h-42.063c-0.407,0-0.974-0.463-0.974-0.87v-42.063
				c0-0.407,0.567-0.605,0.974-0.605h42.063c0.408,0,0.501,0.197,0.501,0.605V233.332z"/>
			<path style="fill:#FBCA8C;" d="M243.779,212.027c0,0.207-0.105,0.406-0.512,0.406h-42.034c-0.407,0-0.992-0.199-0.992-0.406
				v-21.373c0-0.207,0.585,0.01,0.992,0.01h42.034c0.407,0,0.512-0.217,0.512-0.01V212.027z"/>
			<g>
				<path style="fill:#DF5B66;" d="M208.423,220.922v-2.509l2.262-2.044c3.901-3.49,5.782-5.479,5.808-7.553
					c0-1.445-0.844-2.59-2.888-2.59c-1.527,0-2.864,0.764-3.791,1.445l-1.173-2.944c1.309-1.007,3.41-1.826,5.782-1.826
					c4.035,0,6.215,2.344,6.215,5.561c0,2.972-2.126,5.346-4.718,7.634l-1.634,1.363v0.056h6.706v3.408H208.423z"/>
				<path style="fill:#DF5B66;" d="M235.367,206.608h-6.87l-0.382,2.699c0.382-0.027,0.709-0.053,1.146-0.053
					c1.688,0,3.435,0.382,4.662,1.281c1.336,0.899,2.154,2.371,2.154,4.471c0,3.299-2.835,6.216-7.605,6.216
					c-2.156,0-3.954-0.491-4.935-1.008l0.763-3.108c0.764,0.382,2.372,0.872,3.981,0.872c1.715,0,3.543-0.819,3.543-2.699
					c0-1.853-1.446-2.972-4.987-2.972c-0.982,0-1.663,0.055-2.375,0.164l1.147-9.27h9.76V206.608z"/>
			</g>
			<rect x="200.241" y="212.064" style="fill:#FFBC00;" width="43.538" height="0.369"/>
		</g>
		<g>
			<g>
				<path style="fill:#FFFFFF;" d="M286.343,166.164c0-0.356,0.082-0.741,0.437-0.741h27.606l10.589,10.48v41.606
					c0,0.356-0.495,0.547-0.851,0.547H286.78c-0.356,0-0.437-0.191-0.437-0.547V166.164z"/>
			</g>
			<g>
				<path style="fill:#6168BD;" d="M315.111,175.725h9.578l-10.015-10.124v9.578C314.673,175.534,314.755,175.725,315.111,175.725z"
					/>
			</g>
			<g>
				<path style="fill:#343737;" d="M296.186,183.302c-3.594,0-6.507,2.913-6.507,6.507c0,3.594,2.913,6.507,6.507,6.507
					s6.507-2.913,6.507-6.507C302.692,186.215,299.779,183.302,296.186,183.302z M296.186,193.538c-2.059,0-3.729-1.669-3.729-3.729
					s1.669-3.729,3.729-3.729s3.729,1.669,3.729,3.729S298.245,193.538,296.186,193.538z"/>
				<path style="fill:#B74352;" d="M292.457,189.799c0-2.059,1.669-3.724,3.729-3.724c0.017,0,0.034,0.006,0.051,0.006v-2.785
					h-0.468c-3.399,0.228-6.09,3.04-6.09,6.493c0,0.144,0.005,0.293,0.014,0.429h2.789
					C292.466,190.082,292.457,189.945,292.457,189.799z"/>
				<path style="fill:#EC8B1E;" d="M296.237,196.315v-2.779c-0.017,0-0.034,0.001-0.051,0.001c-1.921,0-3.502-1.452-3.706-3.319
					h-2.786c0.039,0.608,0.161,1.196,0.353,1.75c0.891,2.532,3.303,4.346,6.139,4.346
					C296.203,196.316,296.22,196.315,296.237,196.315z"/>
				<path style="fill:#FFBC00;" d="M302.692,189.809c0-0.74-0.124-1.452-0.352-2.115l-0.424-0.735l-2.321,1.34
					c0.205,0.462,0.319,0.972,0.319,1.51c0,1.441-0.818,2.69-2.014,3.311l1.391,2.408
					C301.317,194.426,302.692,192.278,302.692,189.809z"/>
				<path style="fill:#6168BD;" d="M301.64,193.357c0.665-1.021,1.052-2.239,1.052-3.548c0-1.703-0.655-3.254-1.726-4.413
					l-1.45-0.837l-1.246,2.159c0.992,0.67,1.644,1.805,1.644,3.092c0,0.803-0.255,1.546-0.687,2.155L301.64,193.357z"/>
				<path style="fill:#C0611D;" d="M296.186,183.302c-1.386,0-2.671,0.434-3.727,1.173l1.524,2.326
					c0.617-0.453,1.378-0.72,2.202-0.72c1.386,0,2.595,0.757,3.238,1.88l2.268-1.62
					C300.539,184.515,298.504,183.302,296.186,183.302z"/>
			</g>
			<rect x="289.679" y="172.28" style="fill:#4F52A9;" width="3.338" height="2.559"/>
			<path style="fill:#6168BD;" d="M312.183,172.28h-17.504v2.56h17.504V172.28z M289.679,202.901h31.51v-2.559h-31.51V202.901z
				 M289.679,208.383h31.51v-2.559h-31.51V208.383z M289.679,213.865h31.51v-2.559h-31.51V213.865z M305.475,183.523v2.559h15.714
				v-2.559H305.475z M305.475,191.054h15.714v-2.559h-15.714V191.054z M305.475,196.025h15.714v-2.559h-15.714V196.025z"/>
		</g>
	</g>
	<g>
		<g>
			<g>
				<path style="fill:#B4E7E9;" d="M146.31,149.961c-14.736-14.736-38.629-14.736-53.365,0c-14.736,14.736-14.736,38.629,0,53.365
					c14.736,14.736,38.629,14.736,53.365,0C161.046,188.59,161.046,164.697,146.31,149.961z"/>
				<path style="fill:#343737;" d="M155.673,165.559l-39.669,14.512l19.309,30.914c3.976-1.819,7.702-4.364,10.975-7.637
					C156.514,193.121,159.641,178.485,155.673,165.559z"/>
				<path style="fill:#FFBC00;" d="M146.287,149.984c-4.854-4.854-10.703-8.109-16.89-9.765l-13.394,39.852l38.854,10.077
					C160.002,176.673,157.146,160.842,146.287,149.984z"/>
				<path style="fill:#B74352;" d="M116.003,180.071l4.786,34.298c6.223-0.192,12.407-1.914,17.94-5.168L116.003,180.071z"/>
				<path style="fill:#6168BD;" d="M135.176,142.286c-9.672-4.378-20.811-4.469-30.542-0.267l11.37,38.049L135.176,142.286z"/>
				<path style="fill:#EC8B1E;" d="M105.853,141.506c-4.702,1.84-9.109,4.657-12.908,8.455c-3.382,3.382-5.985,7.247-7.815,11.372
					l30.869,18.739L105.853,141.506z"/>
				<path style="fill:#4F52A9;" d="M135.176,142.286c-3.361-1.522-6.899-2.525-10.494-3.01l-8.678,40.792L135.176,142.286z"/>
			</g>
		</g>
		<g>
			<rect x="416.048" y="132.485" style="fill:#B74352;" width="12.903" height="76.355"/>
			<rect x="403.175" y="172.963" style="fill:#FFBC00;" width="12.903" height="35.878"/>
			<rect x="390.301" y="153.334" style="fill:#B4E7E9;" width="12.903" height="55.507"/>
			<rect x="377.428" y="189.405" style="fill:#4F52A9;" width="12.903" height="19.436"/>
			<rect x="364.555" y="197.945" style="fill:#EC8B1E;" width="12.903" height="10.896"/>
		</g>
	</g>
	<g>
		<g>
			<defs>
				<rect id="SVGID_1_" x="50.621" y="235.476" width="394.561" height="199.962"/>
			</defs>
			<clipPath id="SVGID_00000101801718890997293460000002015911161593162131_">
				<use xlink:href="#SVGID_1_"  style="overflow:visible;"/>
			</clipPath>
			<g style="clip-path:url(#SVGID_00000101801718890997293460000002015911161593162131_);">
				<g>
					<g>
						<g>
							<path style="fill:#FFA07F;" d="M176.694,410.423c0,0,22.964,87.766,21.9,122.336c-1.064,34.57-31.462,147.085-31.462,147.085
								l-12.916,1.048c0,0,5.924-137.805,4.333-154.293c-0.763-7.914-30.193-105.528-30.193-105.528L176.694,410.423z"/>
						</g>
						<g>
							<g>
								<g>
									<path style="fill:#B6B1FF;" d="M173.616,397.545c0,0,16.099,52.05,21.2,87.719l-47.111,10.756l-23.812-80.97
										L173.616,397.545z"/>
								</g>
							</g>
							<g>
								<g>
									<path style="fill:#6168BD;" d="M142.793,439.181c3.647,16.06,8.162,31.902,13.529,47.472
										c0.168,0.486-0.603,0.695-0.769,0.212c-5.367-15.57-9.881-31.412-13.529-47.472
										C141.91,438.893,142.679,438.68,142.793,439.181L142.793,439.181z"/>
								</g>
							</g>
							<g>
								<g>
									<polygon style="fill:#6168BD;" points="194.815,476.764 196.983,486.869 146.103,498.038 144.005,488.176 									"/>
								</g>
							</g>
						</g>
						<g>
							<g>
								<path style="fill:#FF7D6F;" d="M198.264,526.433c-3.568,2-7.683,2.301-11.499,0.824c-0.957-0.371-0.262-1.807,0.692-1.438
									c3.237,1.253,6.863,1.005,9.894-0.694C198.24,524.627,199.159,525.932,198.264,526.433L198.264,526.433z"/>
							</g>
						</g>
					</g>
					<g>
						<g>
							<path style="fill:#FFA07F;" d="M141.157,431.379c5.348,36.428-5.146,73.602-10.776,105.124
								C128.977,544.366,96.523,684,96.523,684l-11.732-2.005c0,0-7.777-120.717,4.937-153.812
								c5.872-15.286,5.93-108.621,5.93-108.621L141.157,431.379z"/>
						</g>
						<g>
							<g>
								<path style="fill:#B6B1FF;" d="M149.173,410.423l-8.554,86.129c0,0-41.184-3.323-51.415-5.716
									c0,0-2.424-56.323,7.234-80.413C106.095,386.333,149.173,410.423,149.173,410.423z"/>
							</g>
							<g>
								<g>
									<path style="fill:#6168BD;" d="M103.66,413.091c-2.196,18.41-3.423,36.931-3.649,55.47
										c-0.064,5.247-0.046,10.494,0.047,15.74c0.009,0.514-0.789,0.514-0.798,0c-0.326-18.537,0.322-37.088,1.968-55.555
										c0.466-5.226,1.013-10.445,1.635-15.655C102.922,412.587,103.721,412.582,103.66,413.091L103.66,413.091z"/>
								</g>
							</g>
							<g>
								<polygon style="fill:#6168BD;" points="142.632,487.1 141.573,497.38 87.616,492.283 87.498,482.145 								"/>
							</g>
						</g>
						<g>
							<g>
								<path style="fill:#FF7D6F;" d="M129.654,538.066c-3.717,1.707-7.843,1.676-11.528-0.103
									c-0.924-0.446-0.116-1.822,0.805-1.378c3.126,1.509,6.76,1.553,9.917,0.103
									C129.776,536.262,130.587,537.637,129.654,538.066L129.654,538.066z"/>
							</g>
						</g>
					</g>
					<g>
						<path style="fill:#343737;" d="M153.277,293.23h-43.803c2.632-8.032,4.525-17.947,3.92-29.218
							c-0.693-12.929,4.082-19.666,8.405-23.024c3.047-2.367,6.851-3.525,10.708-3.477c27.742,0.343,24.583,17.246,22.403,29.188
							C153.043,276.933,152.819,285.939,153.277,293.23z"/>
					</g>
					<g>
						<path style="fill:#FFFFFF;" d="M145.035,278.641c0,2.17,1.759,3.929,3.929,3.929c2.17,0,3.929-1.759,3.929-3.929
							c0-2.17-1.759-3.929-3.929-3.929C146.794,274.712,145.035,276.471,145.035,278.641z"/>
					</g>
					<g>
						<g>
							<path style="fill:#FFBC00;" d="M111.3,370.955c0,0-0.818,12.546-1.84,22.538c0,0,30.124,18.061,60.247-5.398l-5.949-16.74
								L111.3,370.955z"/>
						</g>
					</g>
					<g>
						<g>
							<g>
								<path style="fill:#FFBC00;" d="M98.573,345.045c5.067,11.17,10.155,22.92,10.885,31.33c0.305,3.511,7.598,4.711,16.79,4.533
									c16.577-0.322,39.332-5.133,38.365-8.952c-1.622-6.404-2.547-12.298-3.017-17.718c-1.958-22.58,3.984-36.901,0.288-45.51
									c-1.728-4.021-8.931-7.926-15.147-10.652c-5.218-2.287-9.734-3.744-9.734-3.744l-16.484-0.895
									c0,0-24.069,11.603-29.131,19.158C85.862,320.843,91.768,330.045,98.573,345.045z"/>
							</g>
						</g>
						<path style="fill:#FFBC00;" d="M161.884,308.726c0,0,12.758,39.454,22.295,40.779c0,0,13.59-4.626,20.52-8.14
							c9.481-4.806,11.028-4.885,17.486,1.89c6.457,6.776,8.029,10.962,4.478,17.419c-3.552,6.457-40.29,24.967-49.976,24.696
							c-9.686-0.271-23.242-25.289-23.242-25.289L161.884,308.726z"/>
						<g>
							<path style="fill:#EC8B1E;" d="M206.39,340.91c-1.247,11.018,7.303,20.713,18.36,20.958c0.634,0.014,0.634-0.972,0-0.986
								c-10.569-0.234-18.56-9.493-17.374-19.972C207.447,340.281,206.461,340.286,206.39,340.91L206.39,340.91z"/>
						</g>
						<g>
							<g>
								<g>
									<g>
										<g>
											<path style="fill:#FFA07F;" d="M215.856,343.539c0,0-0.205-4.729,2.474-7.583c2.679-2.854,4.058-5.846,6.196-7.83
												c2.138-1.984,1.705,1.929,1.053,3.964c-0.652,2.035-1.37,4.348,0.238,4.59c1.608,0.242,14.639-4.828,16.83-4.238
												c2.191,0.59,0.339,2.069,0.339,2.069s2.93-1.115,3.997-0.003c1.067,1.112-0.564,2.366-0.564,2.366
												s1.994-0.68,2.312,0.781c0.318,1.46-10.215,7.224-9.731,7.989c0.484,0.765,5.025-4.316,6.588-3.187
												c1.562,1.129-2.129,3.34-4.795,5.446c-2.667,2.106-6.159,3.482-9.628,3.363c-3.469-0.119-9.35,1.502-11.748-1.713
												C217.021,346.339,215.856,343.539,215.856,343.539z"/>
										</g>
									</g>
								</g>
								<g>
									<g>
										<g>
											<g>
												<path style="fill:#FF7D6F;" d="M246.4,336.474c-3.469,1.349-6.879,2.812-10.215,4.382
													c-0.394,0.185,0.07,0.775,0.46,0.592c3.284-1.545,6.642-2.984,10.056-4.312
													C247.107,336.977,246.81,336.314,246.4,336.474L246.4,336.474z"/>
											</g>
										</g>
									</g>
								</g>
								<g>
									<g>
										<g>
											<g>
												<path style="fill:#FF7D6F;" d="M242.781,334.438c-2.761,0.778-5.351,1.853-7.766,3.222
													c-0.376,0.213,0.086,0.804,0.46,0.592c2.366-1.341,4.903-2.391,7.607-3.152
													C243.512,334.978,243.211,334.317,242.781,334.438L242.781,334.438z"/>
											</g>
										</g>
									</g>
								</g>
								<g>
									<g>
										<g>
											<path style="fill:#FF7D6F;" d="M237.766,343.989c-0.767-2.861-2.177-5.545-4.204-7.955
												c-0.312-0.37-0.88-0.02-0.567,0.351c1.941,2.308,3.316,4.877,4.051,7.62
												C237.164,344.441,237.885,344.431,237.766,343.989L237.766,343.989z"/>
										</g>
									</g>
								</g>
								<g>
									<g>
										<g>
											<g>
												<path style="fill:#FF7D6F;" d="M232.027,340.307c-4.544-0.637-8.427,1.281-10.089,5.003
													c-0.172,0.384,0.512,0.719,0.683,0.334c1.534-3.437,5.131-5.258,9.339-4.668
													C232.426,341.041,232.498,340.373,232.027,340.307L232.027,340.307z"/>
											</g>
										</g>
									</g>
								</g>
							</g>
						</g>
						<g>
							<path style="fill:#EC8B1E;" d="M168.978,380.761c4.867-4.563,12.55-3.635,16.167,1.973c0.343,0.531,1.196,0.038,0.851-0.497
								c-3.966-6.149-12.374-7.181-17.715-2.172C167.817,380.499,168.515,381.195,168.978,380.761L168.978,380.761z"/>
						</g>
						<g>
							<path style="fill:#EC8B1E;" d="M183.86,349.798c-3.392,2.432-6.578,5.114-9.547,8.048c-0.452,0.447,0.245,1.143,0.697,0.697
								c2.909-2.875,6.024-5.51,9.348-7.894C184.868,350.283,184.376,349.427,183.86,349.798L183.86,349.798z"/>
						</g>
						<g>
							<path style="fill:#EC8B1E;" d="M181,351.588c-1.58,0.034-3.126,0.266-4.646,0.701c-0.609,0.174-0.35,1.125,0.262,0.951
								c1.437-0.411,2.89-0.633,4.384-0.666C181.633,352.56,181.635,351.574,181,351.588L181,351.588z"/>
						</g>
						<g>
							<g>
								<path style="fill:#EC8B1E;" d="M163.985,314.108c0.145,7.056,1.92,13.953,5.205,20.2c0.239,0.454-0.45,0.858-0.689,0.403
									c-3.35-6.37-5.166-13.406-5.314-20.602C163.177,313.595,163.975,313.595,163.985,314.108L163.985,314.108z"/>
							</g>
						</g>
						<g>
							<g>
								<path style="fill:#EC8B1E;" d="M147.733,318.44c-8.863,2.678-18.644,1.319-26.438-3.681
									c-0.431-0.276-0.031-0.967,0.403-0.689c7.625,4.891,17.151,6.221,25.823,3.6
									C148.013,317.522,148.224,318.292,147.733,318.44L147.733,318.44z"/>
							</g>
						</g>
						<g>
							<g>
								<g>
									<path style="fill:#EC8B1E;" d="M161.288,357.817c-10.348,3.856-21.697,4.466-32.403,1.765
										c-0.516-0.13-0.297-0.928,0.22-0.798c10.572,2.668,21.747,2.042,31.963-1.765
										C161.568,356.833,161.783,357.632,161.288,357.817L161.288,357.817z"/>
								</g>
							</g>
						</g>
						<g>
							<g>
								<g>
									<path style="fill:#EC8B1E;" d="M102.819,339.753c6.668,10.866,10.809,23.123,12.122,35.802
										c0.055,0.529-0.773,0.525-0.827,0c-1.298-12.531-5.42-24.649-12.009-35.384
										C101.825,339.715,102.54,339.299,102.819,339.753L102.819,339.753z"/>
									<path style="fill:#FFBC00;" d="M95.627,308.728c0,0-34.415,25.466-39.742,37.908c-5.327,12.442,19.604,49.649,33.048,53.08
										c13.444,3.431,24.502-15.611,17.52-23.766c-6.982-8.155-13.754-16.835-13.754-16.835s14.901-9.2,16.775-12.48
										C116.081,335.076,102.075,303.602,95.627,308.728z"/>
									<g>
										<path style="fill:#EC8B1E;" d="M104.028,372.762c-6.163-1.844-13.137-0.297-17.805,4.184
											c-4.667,4.48-6.45,11.422-4.848,17.637c0.158,0.614,1.109,0.354,0.95-0.262c-1.518-5.887,0.182-12.432,4.594-16.677
											c4.414-4.248,11.025-5.673,16.846-3.931C104.375,373.894,104.636,372.943,104.028,372.762L104.028,372.762z"/>
									</g>
									<g>
										<path style="fill:#EC8B1E;" d="M60.055,340.621c3.417,5.82,1.987,13.164-3.452,17.188
											c-0.504,0.373-0.013,1.229,0.498,0.851c5.87-4.342,7.514-12.22,3.805-18.536
											C60.586,339.577,59.733,340.072,60.055,340.621L60.055,340.621z"/>
									</g>
									<g>
										<path style="fill:#EC8B1E;" d="M102.593,352.804c2.915-2.502,6.19-4.472,9.769-5.868c0.585-0.228,0.33-1.182-0.262-0.95
											c-3.744,1.461-7.154,3.504-10.204,6.121C101.414,352.521,102.114,353.216,102.593,352.804L102.593,352.804z"/>
									</g>
									<g>
										<path style="fill:#EC8B1E;" d="M92.745,358.671c-3.079-4.353-6.905-8.039-11.377-10.944
											c-0.533-0.347-1.028,0.506-0.497,0.851c4.326,2.811,8.044,6.379,11.023,10.591
											C92.257,359.682,93.112,359.19,92.745,358.671L92.745,358.671z"/>
									</g>
									<g>
										<path style="fill:#EC8B1E;" d="M90.259,355.04c-0.387-2.621-1.082-5.14-2.091-7.589c-0.238-0.578-1.192-0.325-0.95,0.262
											c1.01,2.449,1.704,4.968,2.091,7.59C89.401,355.927,90.351,355.662,90.259,355.04L90.259,355.04z"/>
									</g>
								</g>
							</g>
						</g>
						<g>
							<g>
								<path style="fill:#FFBC00;" d="M161.883,318.215c0,0-0.849,5.912,6.059,13.895c8.345,9.643-4.07,20.176-6.764,23.219
									C158.485,358.371,161.883,318.215,161.883,318.215z"/>
							</g>
						</g>
						<g>
							<g>
								<path style="fill:#B6B1FF;" d="M147.477,298.152c0,0,4.983,22.257,4.131,25.847c-0.677,2.851-24.764,4.917-27.715,1.809
									c-3.03-3.191-10.572-29.005-10.572-29.005s-6.508,0-11.28,6.668c2.312-2.374,14.811,31.468,11.28,55.645
									c-1.72,11.775-8.702,33.594-8.702,33.594c21.877,0.245,43.109-2.815,63.7-9.162c0,0-5.226-11.345-5.507-18.516
									c-0.281-7.17-2.458-2.983,1.831-10.222c4.289-7.239,11.023-11.588,4.329-21.353c-6.694-9.764-13.159-17.331-12.72-30.873
									C153.824,300.101,151.115,298.808,147.477,298.152z"/>
							</g>
							<g>
								<g>
									<path style="fill:#6168BD;" d="M116.716,308.878c-3.432-0.38-6.762,0.824-9.139,3.333
										c-0.354,0.373-0.917-0.191-0.564-0.564c2.507-2.646,6.077-3.968,9.703-3.566
										C117.22,308.136,117.226,308.934,116.716,308.878L116.716,308.878z"/>
								</g>
							</g>
							<g>
								<g>
									<path style="fill:#6168BD;" d="M156.333,308.598c-2.109-0.759-4.255-0.722-6.339,0.1c-0.478,0.189-0.685-0.583-0.212-0.769
										c2.201-0.869,4.537-0.901,6.763-0.1C157.025,308.001,156.818,308.772,156.333,308.598L156.333,308.598z"/>
								</g>
							</g>
							<g>
								<g>
									<g>
										<path style="fill:#6168BD;" d="M161.623,336.91c-12.473,3.371-25.472,4.488-38.337,3.284
											c-0.507-0.048-0.512-0.846,0-0.798c12.798,1.198,25.716,0.098,38.125-3.256
											C161.907,336.006,162.118,336.776,161.623,336.91L161.623,336.91z"/>
									</g>
								</g>
								<g>
									<g>
										<path style="fill:#6168BD;" d="M123.469,339.908c-0.562,5.756-0.625,11.551-0.144,17.315
											c0.119,1.421,0.262,2.842,0.454,4.254c0.189,1.395,0.424,2.969,1.662,3.835c1.119,0.783,2.603,0.778,3.916,0.857
											c1.475,0.088,2.951,0.148,4.428,0.178c5.959,0.121,11.93-0.223,17.834-1.043c2.335-0.324,4.858-0.579,7.006-1.626
											c2.691-1.311,3.617-3.812,3.754-6.669c0.316-6.628-0.355-13.413-1.409-19.949c-0.081-0.502,0.688-0.718,0.769-0.212
											c1.046,6.489,1.663,13.141,1.454,19.72c-0.074,2.346-0.467,4.816-2.254,6.503c-1.625,1.534-3.895,2.14-6.035,2.528
											c-6.424,1.164-13.031,1.611-19.554,1.568c-2.853-0.019-6.064,0.18-8.851-0.525c-2.265-0.573-3.108-2.407-3.438-4.559
											c-1.118-7.297-1.106-14.842-0.39-22.175C122.721,339.401,123.519,339.396,123.469,339.908L123.469,339.908z"/>
									</g>
								</g>
							</g>
							<g>
								<path style="fill:#6168BD;" d="M116.32,330.835c0,1.797,1.457,3.254,3.254,3.254c1.797,0,3.255-1.457,3.255-3.254
									c0-1.797-1.457-3.254-3.255-3.254C117.777,327.581,116.32,329.038,116.32,330.835z"/>
							</g>
							<g>
								<path style="fill:#6168BD;" d="M154.305,326.846c0,1.797,1.457,3.254,3.254,3.254c1.797,0,3.254-1.457,3.254-3.254
									c0-1.797-1.457-3.254-3.254-3.254C155.762,323.592,154.305,325.049,154.305,326.846z"/>
							</g>
						</g>
					</g>
					<g>
						<g>
							<g>
								<g>
									<g>
										<path style="fill:#FFA07F;" d="M119.375,296.123c0,0,10.361,9.604,21.51,2.121l-0.627-6.436l-0.684-7.023l-0.478-4.917
											l-14.061-9.647L119.375,296.123z"/>
									</g>
								</g>
								<g>
									<g>
										<path style="fill:#343737;" d="M127.62,278.423c5.287,12.477,10.999,17.2,12.999,17.086l-1.044-10.725L127.62,278.423z"/>
									</g>
								</g>
								<g>
									<path style="fill:#FFBC00;" d="M142.628,296.372c0,0-0.551-6.585-2.009-6.936c-1.458-0.351-4.412,2.682-9.099,1.717
										c-4.687-0.965-8.933-5.202-10.983-4.186c-2.05,1.015-2.773,10.114-2.773,10.114s6.578,7.444,15.406,6.617
										S142.628,296.372,142.628,296.372z"/>
								</g>
								<g>
									<g>
										<path style="fill:#EC8B1E;" d="M142.505,299.993c-4.405,2.322-9.43,3.331-14.389,2.784
											c-3.781-0.417-8.565-1.581-10.134-5.497c-0.191-0.477,0.581-0.684,0.769-0.212c1.564,3.904,7.036,4.823,10.713,5.022
											c4.39,0.237,8.752-0.738,12.638-2.786C142.557,299.065,142.96,299.754,142.505,299.993L142.505,299.993z"/>
									</g>
								</g>
							</g>
							<g>
								<path style="fill:#FFA07F;" d="M120.648,266.478c0.996,4.948,2.233,6.655,5.405,11.649
									c2.832,4.457,8.113,7.035,10.885,7.492c10.073,1.66,15.133-2.051,15.036-15.909c-0.062-8.605,2.698-13.173,0.805-16.653
									l-0.004,0c-0.133-0.164-0.267-0.324-0.402-0.481c-3.248-3.769-7.896-6.056-12.849-6.521
									C114.905,243.744,119.219,259.376,120.648,266.478z"/>
							</g>
							<g>
								<g>
									<g>
										<path style="fill:#343737;" d="M140.009,261.814c-0.976-0.437-2.315-0.341-2.811,0.753
											c-0.463,1.021-2.138,0.472-1.669-0.563c0.875-1.927,3.103-2.729,5.042-1.86
											C141.595,260.604,141.046,262.279,140.009,261.814L140.009,261.814z"/>
									</g>
								</g>
							</g>
							<g>
								<g>
									<g>
										<path style="fill:#343737;" d="M150.065,263.679c-0.629-0.872-1.408-2.124-2.65-1.892
											c-1.114,0.208-1.487-1.513-0.372-1.721c1.978-0.369,3.275,0.968,4.336,2.44
											C152.034,263.417,150.728,264.599,150.065,263.679L150.065,263.679z"/>
									</g>
								</g>
							</g>
							<g>
								<g>
									<path style="fill:#343737;" d="M143.944,271.109c0.003,0,0.006,0,0.009,0c0.629-0.014,1.849-0.364,1.959-1.594
										c0.102-1.136-0.816-1.715-1.483-1.922l-0.407-1.466c-0.061-0.22-0.288-0.349-0.509-0.288
										c-0.22,0.061-0.349,0.289-0.288,0.509l0.471,1.697c0.042,0.152,0.167,0.267,0.322,0.296c0.045,0.009,1.147,0.234,1.069,1.1
										c-0.073,0.808-1.109,0.84-1.153,0.841c-0.228,0.005-0.41,0.194-0.405,0.423
										C143.536,270.929,143.72,271.109,143.944,271.109z"/>
								</g>
							</g>
							<g>
								<path style="fill:#FF7D6F;" d="M133.17,268.849c-0.041,0.735,1.069,1.395,2.479,1.474c1.41,0.079,2.587-0.452,2.628-1.187
									c0.041-0.735-1.069-1.395-2.479-1.474C134.388,267.582,133.212,268.114,133.17,268.849z"/>
							</g>
							<g>
								<g>
									<path style="fill:#FF7D6F;" d="M147.736,270.421c-0.041,0.737,1.069,1.396,2.477,1.475
										c0.664,0.037,1.276-0.061,1.741-0.251c0.017-0.623,0.026-1.268,0.021-1.934c0.001-0.028,0-0.056,0.001-0.08
										c-0.431-0.212-0.995-0.359-1.614-0.394C148.955,269.157,147.777,269.687,147.736,270.421z"/>
								</g>
							</g>
							<g>
								<g>
									<path style="fill:#FFFFFF;" d="M139.713,271.219c-0.107,0.014-0.215,0.024-0.324,0.029
										c-1.178,0.057-2.308-0.419-3.181-1.339c-0.859-0.905-1.368-2.136-1.432-3.466v0c-0.134-2.766,1.717-5.113,4.127-5.229
										c1.178-0.057,2.308,0.418,3.181,1.339c0.859,0.905,1.368,2.136,1.432,3.466c0.064,1.329-0.323,2.604-1.09,3.588
										C141.718,270.516,140.764,271.079,139.713,271.219z M135.53,266.406c0.056,1.149,0.491,2.208,1.226,2.983
										c0.72,0.759,1.642,1.151,2.597,1.105c0.953-0.046,1.835-0.526,2.478-1.351c0.656-0.842,0.987-1.938,0.931-3.087
										c-0.055-1.149-0.491-2.209-1.225-2.983c-0.72-0.759-1.642-1.151-2.597-1.105
										C136.943,262.069,135.416,264.056,135.53,266.406L135.53,266.406z"/>
								</g>
							</g>
							<g>
								<g>
									<g>
										<path style="fill:#FFFFFF;" d="M145.3,265.846c-0.548-0.563-1.341-0.752-2.079-0.463
											c-0.339,0.133-0.119,0.655,0.221,0.522c0.483-0.189,1.044-0.088,1.411,0.289
											C145.105,266.451,145.555,266.107,145.3,265.846L145.3,265.846z"/>
									</g>
								</g>
							</g>
							<g>
								<g>
									<path style="fill:#FFFFFF;" d="M144.81,267.095c0,0.093,0.004,0.187,0.008,0.282c0.006,0.131,0.019,0.258,0.034,0.385
										c0.574,0.292,1.143,0.845,1.061,1.753c-0.023,0.254-0.093,0.471-0.194,0.654c0.157,0.241,0.333,0.469,0.531,0.676
										c0.874,0.919,2.003,1.396,3.182,1.338c0.108-0.004,0.217-0.015,0.323-0.028c1.052-0.14,2.007-0.704,2.715-1.612
										c0.766-0.985,1.153-2.259,1.089-3.587c-0.065-1.33-0.574-2.561-1.433-3.467c-0.873-0.921-2.003-1.396-3.18-1.34
										C146.617,262.262,144.81,264.454,144.81,267.095z M148.98,262.903c0.955-0.047,1.878,0.346,2.597,1.106
										c0.734,0.773,1.17,1.833,1.226,2.982c0.056,1.149-0.275,2.246-0.931,3.088c-0.643,0.824-1.524,1.304-2.479,1.351
										c-0.955,0.047-1.876-0.346-2.597-1.106c-0.734-0.773-1.169-1.833-1.226-2.982
										C145.456,264.992,146.985,263.004,148.98,262.903z"/>
								</g>
							</g>
							<g>
								<g>
									<g>
										<path style="fill:#FFFFFF;" d="M135.368,264.476c-1.688-1.818-3.907-2.907-6.384-3.097
											c-0.362-0.028-0.441,0.533-0.078,0.561c2.323,0.178,4.427,1.174,6.015,2.883
											C135.166,265.089,135.617,264.744,135.368,264.476L135.368,264.476z"/>
									</g>
								</g>
							</g>
							<g>
								<g>
									<g>
										<path style="fill:#343737;" d="M138.21,265.023c1.071-0.1,2.055,0.536,2.47,1.513c0.313,0.737,1.444,0.223,1.132-0.514
											c-0.639-1.504-2.182-2.377-3.796-2.227C137.218,263.87,137.418,265.098,138.21,265.023L138.21,265.023z"/>
									</g>
								</g>
							</g>
							<g>
								<g>
									<g>
										<path style="fill:#343737;" d="M149.456,266.079c-0.872-0.161-1.728,0.288-2.141,1.06
											c-0.311,0.582-1.203,0.076-0.892-0.506c0.636-1.189,1.97-1.792,3.284-1.548
											C150.357,265.206,150.102,266.199,149.456,266.079L149.456,266.079z"/>
									</g>
								</g>
							</g>
							<g>
								<g>
									<g>
										<path style="fill:#FF7D6F;" d="M143.964,279.959c-1.032,0.28-2.109,0.221-2.88-0.591
											c-0.391-0.412,0.266-0.997,0.656-0.587c0.551,0.58,1.325,0.51,2.037,0.317
											C144.326,278.95,144.509,279.811,143.964,279.959L143.964,279.959z"/>
									</g>
								</g>
							</g>
							<g>
								<g>
									<path style="fill:#343737;" d="M121.796,247.11c8.227-5.146,22.788-8.251,31.993,3.042
										c3.043,4.654-1.089,13.606-0.921,10.449c0.396-7.437-3.343-11.553-5.133-9.608c0,0-13.522,12.35-21.591,10.924
										c0,0-2.137,5.942-6.904,7.346C116.724,262.119,117.327,253.279,121.796,247.11z"/>
								</g>
							</g>
							<g>
								<g>
									<path style="fill:#FFFFFF;" d="M147.704,273.662c0,0-3.383,0.398-9.246-1.499c0,0,0.174,5.561,4.668,5.787
										C146.938,278.142,147.704,273.662,147.704,273.662z"/>
								</g>
							</g>
						</g>
						<g>
							<g>
								<g>
									<g>
										<path style="fill:#FFA07F;" d="M130.082,270.922c0.703-1.745,0.486-3.723-0.454-5.354c-1.217-2.113-3.501-5.389-5.884-5.2
											c-3.502,0.279-4.095,3.344-3.938,6.51c0.158,3.166,1.984,7.407,6.359,6.996
											C128.354,273.668,129.507,272.352,130.082,270.922z"/>
									</g>
								</g>
							</g>
							<g>
								<path style="fill:#FFFFFF;" d="M118.746,273.902c0,2.17,1.759,3.929,3.929,3.929c2.17,0,3.928-1.759,3.928-3.929
									c0-2.17-1.759-3.928-3.928-3.928C120.505,269.973,118.746,271.732,118.746,273.902z"/>
							</g>
							<g>
								<g>
									<g>
										<g>
											<path style="fill:#343737;" d="M125.537,270.059c0.272-1.27,0.466-2.607,0.089-3.88
												c-0.337-1.137-1.438-2.835-2.888-2.488c-0.486,0.116-0.752-0.621-0.262-0.739c1.397-0.335,2.628,0.573,3.341,1.735
												c1.03,1.677,0.884,3.68,0.488,5.525C126.2,270.705,125.431,270.554,125.537,270.059L125.537,270.059z"/>
										</g>
									</g>
								</g>
							</g>
						</g>
					</g>
					<g>
						<g>
							<path style="fill:#B6B1FF;" d="M96.918,423.561c8.637,22.612,70.73,7.473,78.266-0.798
								c7.535-8.273-8.026-41.838-8.026-41.838s-23.587,11.981-54.317,5.556c-0.303-0.064-0.607-0.129-0.914-0.196
								c-0.818-0.179-1.64-0.372-2.468-0.579c0,0-0.439,0.497-1.162,1.399c-0.187,0.233-0.392,0.495-0.617,0.783
								C103.141,393.734,91.824,410.219,96.918,423.561z"/>
						</g>
						<g>
							<g>
								<path style="fill:#6168BD;" d="M149.693,400.995c-1.801,20.71-3.602,41.42-5.403,62.13
									c-0.513,5.905-1.027,11.809-1.54,17.714c-0.044,0.508-0.842,0.512-0.798,0c1.801-20.71,3.602-41.42,5.403-62.13
									c0.514-5.905,1.027-11.809,1.54-17.714C148.939,400.487,149.737,400.482,149.693,400.995L149.693,400.995z"/>
							</g>
						</g>
						<g>
							<g>
								<path style="fill:#6168BD;" d="M147.717,415.025c-2.29,1.061-4.185-0.865-4.816-2.952
									c-1.027-3.391-0.979-7.266-0.553-10.743c0.062-0.503,0.86-0.509,0.798,0c-0.313,2.554-0.341,5.12-0.017,7.675
									c0.246,1.941,1.063,6.777,4.186,5.331C147.777,414.122,148.183,414.809,147.717,415.025L147.717,415.025z"/>
							</g>
						</g>
						<g>
							<g>
								<g>
									<g>
										<path style="fill:#6168BD;" d="M107.681,387.888c14.623,4.779,30.634,4.958,45.401,0.542
											c4.755-1.422,9.343-3.335,13.719-5.676c0.532-0.286,0.011-1.07-0.52-0.787c-16.34,8.742-35.809,10.941-53.683,6.376
											c-0.284-0.071-0.568-0.146-0.85-0.222c-1.158-0.308-2.309-0.648-3.451-1.016
											C108.111,387.338,107.906,387.6,107.681,387.888z"/>
									</g>
								</g>
							</g>
							<g>
								<g>
									<g>
										<path style="fill:#6168BD;" d="M158.955,378.196c1.093,1.956,1.76,4.041,2.008,6.268c0.067,0.6,1.008,0.552,0.941-0.052
											c-0.267-2.391-0.99-4.636-2.163-6.736C159.446,377.147,158.661,377.668,158.955,378.196L158.955,378.196z"/>
									</g>
								</g>
							</g>
							<g>
								<g>
									<g>
										<path style="fill:#6168BD;" d="M113.65,379.669c-1.083,2.728-1.713,5.541-1.903,8.47c-0.039,0.603,0.902,0.546,0.94-0.052
											c0.178-2.757,0.781-5.421,1.8-7.988C114.71,379.539,113.873,379.106,113.65,379.669L113.65,379.669z"/>
									</g>
								</g>
							</g>
							<g>
								<g>
									<g>
										<path style="fill:#6168BD;" d="M130.777,382.422c-0.749,2.6-0.99,5.228-0.73,7.921c0.058,0.602,0.999,0.553,0.94-0.052
											c-0.252-2.608-0.014-5.152,0.711-7.669C131.866,382.038,130.944,381.843,130.777,382.422L130.777,382.422z"/>
									</g>
								</g>
							</g>
							<g>
								<g>
									<path style="fill:#6168BD;" d="M145.957,384.51c0.071,1.284,1.17,2.268,2.455,2.197c1.284-0.071,2.268-1.17,2.197-2.455
										c-0.071-1.284-1.17-2.268-2.455-2.196C146.869,382.127,145.886,383.226,145.957,384.51z"/>
								</g>
							</g>
						</g>
						<g>
							<g>
								<g>
									<path style="fill:#6168BD;" d="M114.347,395.839c-2.595,7.613-6.89,17.251-16.308,17.426
										c-0.606,0.011-0.553,0.952,0.052,0.94c9.882-0.184,14.445-10.154,17.177-18.167
										C115.464,395.465,114.541,395.272,114.347,395.839L114.347,395.839z"/>
								</g>
							</g>
						</g>
						<g>
							<g>
								<g>
									<path style="fill:#6168BD;" d="M161.096,393.249c2.801,5.468,7.736,9.517,13.618,11.26c0.582,0.172,0.778-0.75,0.2-0.921
										c-5.658-1.676-10.346-5.613-13.032-10.858C161.606,392.191,160.822,392.714,161.096,393.249L161.096,393.249z"/>
								</g>
							</g>
						</g>
					</g>
					<g>
						<g>
							<path style="fill:#6168BD;" d="M145.305,719.287h11.169l2.393-6.161c0,0,9.259,5.566,15.642,6.161
								c6.382,0.596,22.125,0.218,22.125,0.218s0.995-2.183,1.441-4.712c0.463-2.587,0.354-5.539-1.978-6.88
								c-4.609-2.649-17.596-7.728-21.673-11.629c-4.077-3.901-4.787-15.394-4.787-15.394s4.39-15.889,2.88-17.272
								c-3.848-3.521-11.169,9.219-12.586,9.219c-1.417,0-0.308-6.544-5.119-6.552c-4.808-0.008-3.391,9.975-4.276,15.711
								c-0.516,3.332-2.199,15.386-3.518,24.898C146.066,713.75,145.305,719.287,145.305,719.287z"/>
						</g>
						<g>
							<g>
								<path style="fill:#FFFFFF;" d="M170.216,686.099c-1.609-0.485-3.152-0.311-4.632,0.481
									c-0.905,0.484-1.712-0.893-0.805-1.378c1.846-0.988,3.846-1.249,5.861-0.641
									C171.621,684.857,171.203,686.397,170.216,686.099L170.216,686.099z"/>
							</g>
						</g>
						<g>
							<g>
								<path style="fill:#FFFFFF;" d="M170.688,690.042c-1.654-0.476-3.242-0.257-4.741,0.577c-0.898,0.5-1.704-0.878-0.805-1.378
									c1.863-1.036,3.912-1.33,5.97-0.738C172.097,688.786,171.678,690.327,170.688,690.042L170.688,690.042z"/>
							</g>
						</g>
						<g>
							<g>
								<path style="fill:#FFFFFF;" d="M171.672,693.96c-1.829-0.627-3.614-0.471-5.316,0.445c-0.904,0.487-1.711-0.89-0.805-1.378
									c2.059-1.108,4.32-1.368,6.545-0.606C173.061,692.752,172.647,694.294,171.672,693.96L171.672,693.96z"/>
							</g>
						</g>
						<g>
							<path style="fill:#B6B1FF;" d="M145.305,719.287h11.169l2.393-6.161c0,0,9.259,5.566,15.642,6.161
								c6.382,0.596,22.125,0.218,22.125,0.218s0.995-2.183,1.441-4.712c-7.342,0.62-20.856,1.422-26.276-0.471
								c-7.613-2.659-13.995-7.427-13.995-7.427h-10.786C146.066,713.75,145.305,719.287,145.305,719.287z"/>
						</g>
					</g>
					<g>
						<g>
							<path style="fill:#6168BD;" d="M75.369,719.287h11.169l2.393-6.161c0,0,9.259,5.566,15.642,6.161
								c6.382,0.596,22.125,0.218,22.125,0.218s0.994-2.183,1.441-4.712c0.463-2.587,0.354-5.539-1.978-6.88
								c-4.608-2.649-17.596-7.728-21.673-11.629c-4.076-3.901-4.787-15.394-4.787-15.394s4.39-15.889,2.88-17.272
								c-3.848-3.521-11.169,9.219-12.586,9.219c-1.417,0-0.308-6.544-5.119-6.552c-4.808-0.008-3.39,9.975-4.276,15.711
								c-0.516,3.332-2.199,15.386-3.518,24.898C76.129,713.75,75.369,719.287,75.369,719.287z"/>
						</g>
						<g>
							<g>
								<path style="fill:#FFFFFF;" d="M100.086,685.092c-1.608-0.484-3.152-0.311-4.632,0.481
									c-0.905,0.484-1.712-0.892-0.805-1.378c1.846-0.988,3.846-1.249,5.861-0.642
									C101.491,683.849,101.073,685.39,100.086,685.092L100.086,685.092z"/>
							</g>
						</g>
						<g>
							<g>
								<path style="fill:#FFFFFF;" d="M100.558,689.034c-1.654-0.476-3.242-0.257-4.741,0.577c-0.898,0.5-1.704-0.878-0.805-1.378
									c1.863-1.036,3.912-1.33,5.97-0.737C101.967,687.779,101.548,689.319,100.558,689.034L100.558,689.034z"/>
							</g>
						</g>
						<g>
							<g>
								<path style="fill:#FFFFFF;" d="M101.542,692.953c-1.829-0.627-3.614-0.471-5.316,0.445c-0.904,0.487-1.711-0.89-0.806-1.378
									c2.059-1.108,4.32-1.369,6.545-0.606C102.932,691.745,102.517,693.287,101.542,692.953L101.542,692.953z"/>
							</g>
						</g>
						<g>
							<path style="fill:#B6B1FF;" d="M75.369,719.287h11.169l2.393-6.161c0,0,9.259,5.566,15.642,6.161
								c6.382,0.596,22.125,0.218,22.125,0.218s0.994-2.183,1.441-4.712c-7.342,0.62-20.856,1.422-26.276-0.471
								c-7.613-2.659-13.995-7.427-13.995-7.427H77.081C76.129,713.75,75.369,719.287,75.369,719.287z"/>
						</g>
					</g>
					<g>
						<g>
							<path style="fill:#B6B1FF;" d="M149.656,691.947c6.32,2.691,10.046,9.253,9.135,16.064c-0.067,0.501-0.866,0.508-0.798,0
								c0.879-6.568-2.646-12.78-8.74-15.375C148.783,692.435,149.188,691.748,149.656,691.947L149.656,691.947z"/>
						</g>
					</g>
					<g>
						<g>
							<path style="fill:#B6B1FF;" d="M79.777,690.321c5.624,4.073,8.916,10.798,8.623,17.745c-0.022,0.511-0.82,0.514-0.798,0
								c0.281-6.65-2.83-13.147-8.228-17.056C78.963,690.712,79.36,690.019,79.777,690.321L79.777,690.321z"/>
						</g>
					</g>
					<g>
						<path style="fill:#FFA07F;" d="M94.991,387.999c1.017-3.331,3.62-5.99,6.972-6.936c0.977-0.275,1.848-0.362,2.375-0.063
							c1.842,1.046,14.179,7.861,15.035,10.144c0.856,2.283-9.577-1.867-9.577-1.867s8.685,6.281,7.258,7.55
							c-1.427,1.269-11.124-4.269-11.124-4.269s5.404,5.04,5.578,6.563c0.286,2.497-9.407-3.995-9.407-3.995
							s2.895,5.992,2.013,6.991c-0.881,0.999-8.087-0.754-7.69-2.14c0.46-1.605,2.742-0.429,3.079-0.642
							c0.362-0.229-5.717-2.005-6.002-4.326C93.35,393.781,94.178,390.662,94.991,387.999z"/>
					</g>
				</g>
				<g>
					<g>
						<g>
							<g>
								<polygon style="fill:#FFA07F;" points="403.393,668.336 411.651,704.686 427.451,703.059 424.722,668.347 								"/>
							</g>
						</g>
						<g>
							<g>
								<g>
									<path style="fill:#FFBC00;" d="M440.237,719.623h-33.181c0,0,1.12-17.272,2.655-21.381c1.536-4.11,3.511,4.111,3.511,4.111
										s3.106-6.416,8.494-6.784c2.099-0.143,4.208,0.323,5.131,2.452c0.4-0.845,0.979-1.673,1.644-1.438
										c1.254,0.445,1.726,8.645,1.736,8.838c1.428,1.49,3.386,3.196,5.049,3.429
										C439.146,709.397,442.202,713.542,440.237,719.623z"/>
								</g>
							</g>
							<g>
								<g>
									<g>
										<path style="fill:#FFFFFF;" d="M418.376,703.081c2.362-2.946,6.318-3.656,9.491-1.548
											c0.428,0.284,0.027,0.979-0.405,0.692c-2.894-1.923-6.373-1.255-8.52,1.423
											C418.62,704.051,418.056,703.48,418.376,703.081L418.376,703.081z"/>
									</g>
								</g>
							</g>
							<g>
								<g>
									<g>
										<path style="fill:#FFFFFF;" d="M419.025,705.716c2.362-2.946,6.318-3.656,9.491-1.548
											c0.428,0.284,0.027,0.979-0.405,0.692c-2.894-1.923-6.373-1.255-8.52,1.423
											C419.269,706.685,418.705,706.115,419.025,705.716L419.025,705.716z"/>
									</g>
								</g>
							</g>
							<g>
								<g>
									<g>
										<path style="fill:#FFFFFF;" d="M420.422,708.841c2.042-2.87,5.567-3.823,8.503-1.629c0.409,0.305,0.009,1.002-0.405,0.692
											c-2.56-1.913-5.604-1.19-7.406,1.342C420.818,709.662,420.122,709.262,420.422,708.841L420.422,708.841z"/>
									</g>
								</g>
							</g>
							<g>
								<g>
									<g>
										<path style="fill:#343737;" d="M408.823,703.478c2.798,3.345,2.645,7.677,2.174,11.776c-0.058,0.507-0.861,0.513-0.802,0
											c0.441-3.84,0.7-8.055-1.94-11.209C407.927,703.651,408.492,703.081,408.823,703.478L408.823,703.478z"/>
									</g>
								</g>
							</g>
							<g>
								<g>
									<g>
										<path style="fill:#343737;" d="M407.8,715.117c10.54,0.11,21.079,0.22,31.619,0.33c0.516,0.005,0.517,0.807,0,0.802
											c-10.54-0.11-21.079-0.22-31.619-0.33C407.284,715.914,407.283,715.112,407.8,715.117L407.8,715.117z"/>
									</g>
								</g>
							</g>
						</g>
						<g>
							<g>
								<path style="fill:#B6B1FF;" d="M352.854,454.396c0,0,17.674,92.142,23.981,108.218
									c2.343,5.973,19.065,118.068,19.065,118.068l38.543-0.283c0,0-7.038-112.763-9.457-129.135
									c-3.743-25.334-9.165-97.402-9.165-97.402L352.854,454.396z"/>
							</g>
						</g>
						<g>
							<path style="fill:#6168BD;" d="M408.462,563.093c5.485,2.263,11.751,1.74,16.802-1.365c0.539-0.332,0.045-1.184-0.498-0.851
								c-4.852,2.982-10.781,3.436-16.042,1.265C408.138,561.901,407.883,562.854,408.462,563.093L408.462,563.093z"/>
						</g>
						<g>
							<g>
								<path style="fill:#6168BD;" d="M400.796,672.901c-0.337,0-0.631-0.251-0.675-0.595
									c-0.121-0.954-12.171-95.505-15.45-108.205c-3.289-12.74-16.494-63.16-16.627-63.668c-0.095-0.364,0.122-0.736,0.486-0.831
									c0.367-0.096,0.736,0.123,0.831,0.486c0.133,0.508,13.338,50.93,16.628,63.672c3.3,12.783,14.987,104.477,15.483,108.374
									c0.047,0.373-0.216,0.714-0.59,0.762C400.854,672.9,400.825,672.901,400.796,672.901z"/>
							</g>
						</g>
						<g>
							<g>
								<polygon style="fill:#6168BD;" points="436.324,670.659 391.466,671.502 393.007,682.948 437.526,681.908 								"/>
							</g>
						</g>
					</g>
					<g>
						<g>
							<g>
								<g>
									<polygon style="fill:#FFA07F;" points="350.185,666.17 348.092,701.746 332.933,702.955 327.072,667.97 									"/>
								</g>
							</g>
							<g>
								<g>
									<path style="fill:#FFBC00;" d="M336.429,699.446c0,0-2.301-2.844-5.22-1.873c-2.919,0.971-6.739,5.751-6.739,5.751
										s-15.829,5.077-20.104,5.344c-4.275,0.267-8.016,2.672-9.619,10.955h51.836c0,0,2.04-18.704,2.356-21.91
										c0.316-3.206-4.761,0.802-4.761,0.802L336.429,699.446z"/>
								</g>
							</g>
							<g>
								<g>
									<g>
										<path style="fill:#343737;" d="M347.896,704.812c-3.911,2.211-6.178,6.625-4.217,10.944
											c0.212,0.466-0.479,0.874-0.693,0.405c-2.143-4.721,0.178-9.595,4.505-12.041
											C347.941,703.865,348.346,704.558,347.896,704.812L347.896,704.812z"/>
									</g>
								</g>
							</g>
							<g>
								<g>
									<g>
										<path style="fill:#343737;" d="M346.467,716.635c-13.613,0.142-27.226,0.284-40.84,0.426
											c-3.114,0.033-6.229,0.065-9.343,0.098c-0.516,0.005-0.516-0.797,0-0.802c13.613-0.142,27.226-0.284,40.84-0.426
											c3.114-0.032,6.228-0.065,9.343-0.097C346.983,715.827,346.984,716.629,346.467,716.635L346.467,716.635z"/>
									</g>
								</g>
							</g>
							<g>
								<g>
									<g>
										<path style="fill:#FFFFFF;" d="M326.306,706.579c-1.803-2.533-4.849-3.253-7.406-1.342
											c-0.413,0.309-0.814-0.387-0.405-0.692c2.935-2.193,6.461-1.24,8.503,1.629
											C327.298,706.596,326.603,706.997,326.306,706.579L326.306,706.579z"/>
									</g>
								</g>
							</g>
							<g>
								<g>
									<g>
										<path style="fill:#FFFFFF;" d="M321.84,707.927c-1.803-2.533-4.849-3.252-7.406-1.342
											c-0.414,0.309-0.814-0.387-0.405-0.692c2.935-2.193,6.461-1.24,8.503,1.629
											C322.832,707.944,322.137,708.345,321.84,707.927L321.84,707.927z"/>
									</g>
								</g>
							</g>
							<g>
								<g>
									<g>
										<path style="fill:#FFFFFF;" d="M317.228,709.275c-1.803-2.534-4.849-3.252-7.406-1.341
											c-0.414,0.309-0.814-0.387-0.405-0.693c2.935-2.193,6.461-1.24,8.502,1.629
											C318.22,709.292,317.525,709.693,317.228,709.275L317.228,709.275z"/>
									</g>
								</g>
							</g>
						</g>
						<g>
							<polygon style="fill:#B6B1FF;" points="321.225,441.995 306.887,555.28 318.623,680.533 361.278,680.533 354.804,559.83 
								368.703,455.655 							"/>
						</g>
						<g>
							<path style="fill:#6168BD;" d="M307.789,556.744c6.275,3.772,13.618,5.185,20.847,4.06c0.625-0.097,0.359-1.047-0.262-0.95
								c-6.961,1.083-14.055-0.334-20.087-3.961C307.742,555.565,307.246,556.417,307.789,556.744L307.789,556.744z"/>
						</g>
						<g>
							<path style="fill:#6168BD;" d="M317.561,481.191c10.103-4.694,15.73-15.552,13.902-26.52c-0.104-0.624-1.054-0.36-0.95,0.262
								c1.759,10.557-3.773,20.911-13.449,25.407C316.488,480.607,316.988,481.457,317.561,481.191L317.561,481.191z"/>
						</g>
						<g>
							<path style="fill:#6168BD;" d="M398.988,460.667c-0.401,12.184,6.953,23.995,18.086,28.978
								c0.574,0.257,1.076-0.592,0.497-0.851c-10.836-4.85-17.988-16.256-17.598-28.127
								C399.994,460.032,399.009,460.033,398.988,460.667L398.988,460.667z"/>
						</g>
						<g>
							<g>
								<path style="fill:#6168BD;" d="M352.853,672.901c-0.36,0-0.661-0.282-0.68-0.646l-6-115.882
									c-0.003-0.049,0-0.098,0.008-0.147l15.079-90.512c0.062-0.37,0.41-0.623,0.784-0.56c0.371,0.062,0.622,0.413,0.56,0.784
									l-15.066,90.439l5.996,115.808c0.02,0.376-0.27,0.696-0.645,0.716C352.877,672.901,352.865,672.901,352.853,672.901z"/>
							</g>
						</g>
						<g>
							<g>
								<path style="fill:#6168BD;" d="M361.591,485.723c-1.702,0-2.939-0.491-3.038-0.531c-0.348-0.143-0.515-0.54-0.373-0.888
									c0.143-0.348,0.542-0.514,0.888-0.373c0.161,0.065,4.005,1.563,7.238-1.44c2.81-2.609,5.264-19.095,5.974-25.228
									c0.043-0.374,0.382-0.644,0.755-0.598c0.374,0.043,0.642,0.381,0.598,0.755c-0.267,2.308-2.713,22.646-6.399,26.07
									C365.324,485.263,363.24,485.723,361.591,485.723z"/>
							</g>
						</g>
						<g>
							<g>
								<polygon style="fill:#6168BD;" points="363.093,671.964 315.354,670.659 315.782,681.515 363.215,682.619 								"/>
							</g>
						</g>
					</g>
					<g>
						<g>
							<path style="fill:#FFA07F;" d="M345.802,346.662c0,0-35.984,14.532-54.349,14.384c-18.366-0.148-61.093-46.476-61.093-46.476
								l3.373-9.903c0,0,54.677,30.187,57.738,30.92c3.06,0.732,49.851-31.044,49.851-31.044S351.339,332.374,345.802,346.662z"/>
						</g>
						<g>
							<path style="fill:#343737;" d="M246.997,311.96c0,0-0.545,9.284-6.722,12.809c0,0,1.615,3.872,5.083,4.956
								c0,0,6.318-6.6,7.413-14.606C252.771,315.12,251.028,312.522,246.997,311.96z"/>
						</g>
						<g>
							<g>
								<path style="fill:#FF7D6F;" d="M291.836,336.025c0.561,3.126,1.474,6.126,2.768,9.029c0.271,0.609-0.643,1.104-0.916,0.492
									c-1.329-2.981-2.288-6.067-2.864-9.281C290.706,335.608,291.717,335.365,291.836,336.025L291.836,336.025z"/>
							</g>
						</g>
						<g>
							<g>
								<path style="fill:#FF7D6F;" d="M291.982,337.815c-1.275,2.652-2.121,5.334-2.595,8.239
									c-0.106,0.652-1.147,0.622-1.039-0.037c0.504-3.091,1.398-5.935,2.755-8.758
									C291.393,336.657,292.269,337.217,291.982,337.815L291.982,337.815z"/>
							</g>
						</g>
						<g>
							<g>
								<path style="fill:#EC8B1E;" d="M358.605,336.577c-6.85,8.998-19.203,22.213-35.58,27.266l-15.561-40.595
									c0,0,17.919-13.163,32.999-17.816c9.559-2.949,12.949,1.649,17.007,5.945C364.006,318.296,364.37,329.004,358.605,336.577z"
									/>
							</g>
						</g>
						<g>
							<g>
								<path style="fill:#FFFFFF;" d="M310.204,322.031c5.415,13.074,10.829,26.147,16.244,39.221
									c0.244,0.589,1.203,0.301,0.956-0.295c-5.415-13.074-10.829-26.147-16.244-39.221
									C310.917,321.147,309.957,321.435,310.204,322.031L310.204,322.031z"/>
							</g>
						</g>
						<g>
							<g>
								<g>
									<path style="fill:#FFA07F;" d="M244.082,314.401c1.676-4.265,0.237-9.136-3.513-11.769
										c-0.999-0.701-2.187-1.425-3.613-2.158c-2.688-1.382-8.892-4.876-11.234-6.298c-2.342-1.422-3.743-2.839-4.512-1
										c-0.769,1.839,7.081,8.413,7.081,8.413s-15.236-4.011-17.417-1.709c-2.181,2.301,3.236,3.125,3.236,3.125
										s-6.622-0.308-6.977,1.656c-0.355,1.964,6.49,2.526,6.49,2.526s-5.654,0.153-6.189,1.73
										c-0.535,1.577,3.777,2.107,6.006,2.2c0,0-5.24,0.703-5.204,2.486c0.036,1.782,4.885,0.743,8.055,0.806
										c3.169,0.063,10.894,0.434,13.605,3.358c1.079,1.164,2.391,1.826,3.752,2.165
										C237.991,321.014,242.445,318.566,244.082,314.401L244.082,314.401z"/>
								</g>
							</g>
							<g>
								<g>
									<g>
										<g>
											<g>
												<path style="fill:#FF7D6F;" d="M213.639,303.369c2.726-0.276,5.417-0.083,8.075,0.582
													c0.491,0.123,0.666-0.643,0.176-0.765c-2.724-0.682-5.49-0.884-8.285-0.601
													C213.106,302.635,213.136,303.42,213.639,303.369L213.639,303.369z"/>
											</g>
										</g>
									</g>
								</g>
							</g>
							<g>
								<g>
									<g>
										<g>
											<g>
												<path style="fill:#FF7D6F;" d="M212.812,307.495c2.507-0.115,5.027-0.118,7.447,0.627
													c0.484,0.149,0.656-0.617,0.176-0.765c-2.483-0.765-5.084-0.764-7.656-0.646
													C212.274,306.734,212.306,307.519,212.812,307.495L212.812,307.495z"/>
											</g>
										</g>
									</g>
								</g>
							</g>
							<g>
								<g>
									<g>
										<g>
											<g>
												<path style="fill:#FF7D6F;" d="M212.952,311.597c2.284-0.332,4.534-0.249,6.787,0.262
													c0.493,0.112,0.669-0.654,0.176-0.765c-2.32-0.526-4.641-0.622-6.997-0.281
													C212.423,310.885,212.451,311.67,212.952,311.597L212.952,311.597z"/>
											</g>
										</g>
									</g>
								</g>
							</g>
							<g>
								<g>
									<g>
										<g>
											<g>
												<path style="fill:#FF7D6F;" d="M228.098,301.744c1.974,2.215,4.411,3.822,7.207,4.805
													c0.476,0.168,0.648-0.599,0.176-0.765c-2.664-0.937-4.975-2.513-6.852-4.619
													C228.293,300.788,227.765,301.369,228.098,301.744L228.098,301.744z"/>
											</g>
										</g>
									</g>
								</g>
							</g>
							<g>
								<g>
									<g>
										<g>
											<g>
												<path style="fill:#FF7D6F;" d="M229.951,304.523c-0.114,4.578,2.413,8.883,6.447,11.04
													c0.446,0.239,0.813-0.456,0.367-0.694c-3.806-2.035-6.137-6.069-6.029-10.379
													C230.747,303.985,229.963,304.02,229.951,304.523L229.951,304.523z"/>
											</g>
										</g>
									</g>
								</g>
							</g>
							<g>
								<g>
									<g>
										<g>
											<g>
												<path style="fill:#FF7D6F;" d="M222.206,302.41c-2.254,2.87-2.906,6.632-1.704,10.085
													c0.166,0.476,0.914,0.238,0.747-0.241c-1.105-3.176-0.546-6.664,1.535-9.314
													C223.094,302.546,222.519,302.012,222.206,302.41L222.206,302.41z"/>
											</g>
										</g>
									</g>
								</g>
							</g>
						</g>
					</g>
					<g>
						<g>
							<g>
								<g>
									<path style="fill:#FFBC00;" d="M334.15,401.594l87.861,14.984c0,0,1.775-9.454,3.133-23.862
										c0.543-5.755,1.012-12.299,1.28-19.346c0.269-6.999,0.329-14.487,0.045-22.197l-0.001-0.014
										c-0.401-11.111-1.516-22.669-3.752-33.832c-1.457-7.293-10.451-12.993-20.497-17.792c-2.773-1.323-5.352-2.441-7.665-3.373
										c-6.892-2.779-11.392-3.904-11.392-3.904s-7.952-0.836-20.026,2.68c-0.76,0.221-1.516,0.448-2.261,0.679
										c-13.026,4.006-23.531,9.191-23.083,12.874c0.259,2.125-1.405,13.191-0.366,27.03c0.563,7.445,0.589,15.454,0.928,23.516
										c0,0,0,0.01,0.001,0.024c0.022,0.481,0.04,0.963,0.058,1.448C339.227,381.328,338.711,400.609,334.15,401.594z"/>
								</g>
							</g>
						</g>
						<g>
							<path style="fill:#FFFFFF;" d="M371.484,307.868c11.162-0.34,19.385-7.681,23.07-11.705
								c-6.892-2.779-11.392-3.904-11.392-3.904s-7.952-0.836-20.026,2.68c-0.76,0.221-1.516,0.448-2.261,0.679
								C360.178,300.286,360.586,308.2,371.484,307.868z"/>
						</g>
						<g>
							<g>
								<g>
									<path style="fill:#EC8B1E;" d="M393.257,302.224c-5.689,4.026-11.761,8.087-18.727,9.425
										c-5.978,1.148-12.482,0.184-17.184-3.89c-0.359-0.311,0.194-0.803,0.55-0.495c4.687,4.062,11.336,4.825,17.224,3.505
										c6.537-1.465,12.254-5.282,17.642-9.096C393.146,301.402,393.645,301.949,393.257,302.224L393.257,302.224z"/>
								</g>
							</g>
						</g>
						<g>
							<g>
								<g>
									<path style="fill:#FFBC00;" d="M425.145,392.717c-0.177,5.352-0.164,11.489-0.161,17.813v2.503
										c-0.003,2.001-0.007,4.011-0.02,6.012c-0.026,3.69-0.082,7.349-0.214,10.865c-0.007,0.154-0.013,0.306-0.017,0.457
										c-0.118,3.016-0.292,5.92-0.542,8.634c-0.861,9.294-2.641,16.41-6.328,18.349c-13.227,6.958-109.916,10.74-99.413-20.836
										c0.677-2.03,1.426-4.406,2.228-7.041c0.788-2.595,1.63-5.441,2.497-8.453c1.209-4.195,2.474-8.713,3.732-13.329
										c0.723-2.648,1.446-5.326,2.152-7.993c4.8-18.043,9.025-35.561,9.229-39.257c0.046-0.795,0.062-1.275,0.066-1.38
										c0-0.013,0-0.02,0-0.02l86.229-7.119c0,0,0.581,9.015,0.736,21.46C425.391,379.257,425.368,385.896,425.145,392.717z"/>
								</g>
							</g>
						</g>
						<g>
							<g>
								<g>
									<path style="fill:#EC8B1E;" d="M337.46,315.202c2.338,1.052,4.751,1.946,7.194,2.718
										c13.868,4.391,28.92,6.058,43.401,6.567c11.913,0.417,23.83-0.289,35.604-2.031c-0.288-1.718-0.604-3.428-0.943-5.128
										c-0.201-1.013-0.56-1.991-1.05-2.936c-4.502,0.643-9.03,1.118-13.573,1.433c-14.623,1.018-29.367,0.405-43.831-2.001
										c-8.58-1.427-17.959-3.101-25.795-7.315c-0.513,0.695-0.749,1.361-0.675,1.983
										C337.899,309.363,337.681,311.741,337.46,315.202z"/>
								</g>
								<g>
									<path style="fill:#EC8B1E;" d="M337.163,330.599c0.052,1.593,0.137,3.238,0.264,4.923c0.111,1.474,0.201,2.969,0.275,4.482
										c1.956,0.825,3.958,1.547,5.979,2.186c13.868,4.394,28.923,6.061,43.405,6.57c13.107,0.457,26.229-0.442,39.156-2.59
										c-0.15-2.745-0.348-5.509-0.602-8.279c-6.126,1.047-12.307,1.779-18.515,2.207c-14.623,1.014-29.367,0.405-43.831-2.001
										C354.591,336.65,345.066,334.949,337.163,330.599z"/>
								</g>
								<g>
									<path style="fill:#EC8B1E;" d="M337.968,364.781c0.2,0.081,0.4,0.158,0.6,0.235c1.365,0.527,2.749,1.008,4.143,1.448
										c13.868,4.391,28.923,6.061,43.401,6.567c13.114,0.461,26.232-0.438,39.162-2.586c0.417-0.068,0.839-0.14,1.256-0.212
										c0.079-2.745,0.122-5.555,0.125-8.419c-0.531,0.099-1.065,0.192-1.6,0.284c-6.257,1.085-12.566,1.836-18.905,2.275
										c-14.622,1.014-29.367,0.405-43.827-2.001c-5.719-0.949-11.795-2.012-17.528-3.863c-2.252-0.722-4.448-1.57-6.556-2.581
										c0.035,1.036,0.07,2.072,0.115,3.11c0,0,0,0,0,0.003c0,0,0,0.007-0.003,0.021c0,0.104-0.017,0.583-0.062,1.379
										C338.237,361.431,338.136,362.914,337.968,364.781z"/>
								</g>
								<g>
									<path style="fill:#EC8B1E;" d="M334.022,387.78c1.368,0.638,2.769,1.216,4.186,1.745c1.164,0.436,2.345,0.837,3.529,1.214
										c13.868,4.39,28.923,6.061,43.405,6.567c13.333,0.464,26.678-0.473,39.821-2.7c0.038-0.005,0.076-0.009,0.114-0.017
										c0.026-0.625,0.049-1.25,0.068-1.871c0.199-2.111,0.385-4.325,0.561-6.633c-0.135,0.025-0.269,0.05-0.404,0.071
										c-6.656,1.201-13.371,2.026-20.122,2.492c-14.623,1.014-29.368,0.405-43.831-2.001c-7.469-1.243-15.543-2.672-22.681-5.8
										c-0.945-0.415-1.874-0.862-2.783-1.341C335.376,382.156,334.76,384.938,334.022,387.78z"/>
								</g>
								<g>
									<path style="fill:#EC8B1E;" d="M424.984,410.53v2.503c-0.003,2.001-0.007,4.011-0.02,6.012
										c-12.557,1.984-26.96,2.973-39.579,2.533c-14.479-0.506-29.532-2.175-43.4-6.568c-5.125-1.623-10.122-3.772-14.541-6.804
										c-0.184-0.174-0.365-0.345-0.536-0.516c0.723-2.648,1.446-5.326,2.152-7.993c8.673,6.091,22.525,9.551,32.535,11.22
										c13.582,2.264,27.413,2.937,41.159,2.168c0.89-0.049,1.777-0.102,2.668-0.164c6.295-0.44,12.557-1.183,18.769-2.254
										C424.455,410.625,424.718,410.576,424.984,410.53z"/>
								</g>
								<g>
									<path style="fill:#EC8B1E;" d="M424.734,430.367c-0.118,3.016-0.292,5.92-0.542,8.634
										c-13.326,1.922-31.024,3.184-43.932,2.779c-15.28-0.48-31.172-2.126-45.805-6.492c-4.81-1.439-9.514-3.292-13.776-5.815
										c0.788-2.595,1.63-5.441,2.497-8.453c9.022,6.393,21.115,8.443,31.99,10.139c14.334,2.241,28.935,2.891,43.446,2.099
										c0.94-0.049,1.879-0.108,2.816-0.171c6.646-0.447,13.26-1.202,19.821-2.283
										C421.426,430.775,423.249,430.617,424.734,430.367z"/>
								</g>
							</g>
						</g>
					</g>
					<g>
						<g>
							<path style="fill:#FFA07F;" d="M397.011,344.755c0,0,1.536,42.921-1.287,49.325c-2.823,6.404-64.369,11.898-64.369,11.898
								v10.599c0,0,57.301,12.069,83.627,1.019c26.798-11.248,14.167-78.862,14.167-78.862L397.011,344.755z"/>
						</g>
						<g>
							<g>
								<g>
									<g>
										<g>
											<g>
												<g>
													<g>
														<g>
															<g>
																<g>
																	<path style="fill:#FFA07F;" d="M337.567,408.52c1.758,3.745-0.059,8.155-3.743,10.038
																		c-1.943,0.993-3.984,2.262-5.273,3.692c-3.093,3.433-5.794,8.348-7.847,9.64c-3.029,1.907-2.313-1.886-2.159-2.344
																		c0.984-2.932,3.041-6.745,3.041-6.745s-5.301,5.792-6.322,8.712c-1.021,2.92-3.643,3.86-4.248,0.59
																		c-0.604-3.269,3.908-10.867,5.727-12.633c0,0-4.192,2.729-5.705,6.638c-1.514,3.909-2.579,5.105-3.9,6.173
																		c-1.32,1.068-3.188-1.785-0.935-7.187c2.252-5.402,4.472-6.907,6.672-8.723c0,0-2.205,0.703-5.494,2.611
																		c-3.288,1.909-4.677,6.565-6.945,6.73c-2.32,0.168-0.484-5.126,1.835-7.592c2.319-2.466,3.796-4.457,7.735-6.247
																		c3.939-1.79,7.766-3.365,10.382-3.87c2.616-0.505,11.681-3.526,15.135-1.845
																		C336.405,406.586,337.068,407.459,337.567,408.52z"/>
																</g>
															</g>
														</g>
													</g>
												</g>
											</g>
										</g>
									</g>
								</g>
							</g>
							<g>
								<g>
									<g>
										<g>
											<g>
												<path style="fill:#FFA07F;" d="M327.6,406.431c0,0-8.04-1.246-10.601-0.252c-2.561,0.994-6.954,1.132-6.431,2.906
													c0.523,1.774,5.921,1.457,5.921,1.457L327.6,406.431z"/>
											</g>
										</g>
									</g>
								</g>
							</g>
						</g>
						<g>
							<g>
								<path style="fill:#FF7D6F;" d="M395.94,395.218c3.123,0.578,6.118,1.507,9.013,2.817c0.607,0.275,1.107-0.637,0.497-0.913
									c-2.973-1.345-6.054-2.321-9.265-2.914C395.53,394.086,395.282,395.096,395.94,395.218L395.94,395.218z"/>
							</g>
						</g>
						<g>
							<g>
								<path style="fill:#FF7D6F;" d="M399.712,395.706c2.659-1.261,5.345-2.092,8.253-2.55c0.652-0.103,0.629-1.143-0.032-1.039
									c-3.093,0.487-5.943,1.365-8.773,2.708C398.557,395.11,399.113,395.99,399.712,395.706L399.712,395.706z"/>
							</g>
						</g>
						<g>
							<g>
								<path style="fill:#EC8B1E;" d="M423.8,315.497c5.936,9.625,13.831,25.902,12.663,43.001l-43.475-0.062
									c0,0-5.117-18.104-4.042-33.849c0.682-9.981,5.462-14.84,10.929-17.083C408.68,303.889,418.804,307.396,423.8,315.497z"/>
							</g>
						</g>
						<g>
							<g>
								<path style="fill:#FFFFFF;" d="M392.795,354c14.213-0.144,28.427-0.287,42.64-0.43c0.644-0.007,0.614-1.007-0.03-1
									c-14.213,0.143-28.427,0.287-42.64,0.43C392.12,353.006,392.15,354.006,392.795,354L392.795,354z"/>
							</g>
						</g>
					</g>
					<g>
						<g>
							<g>
								<g>
									<path style="fill:#FFA07F;" d="M389.018,296.91c0,0-22.873,15.022-26.36,0.674l3.307-9.943l2.182-6.561l1.527-4.594
										l18.93-2.435C387.348,282.646,387.607,290.181,389.018,296.91z"/>
								</g>
							</g>
							<g>
								<g>
									<path style="fill:#343737;" d="M383.887,280.819c-8.822,9.614-16.347,10.438-18.754,9.324l3.014-9.063L383.887,280.819z"/>
								</g>
							</g>
						</g>
						<g>
							<g>
								<path style="fill:#DF5B66;" d="M361.567,256.238c0,0-2.177-2.717-3.93-5.23c-1.753-2.513,0.791-3.747,0.791-3.747
									s-7.073-9.184-4.215-12.654c2.858-3.47,6.362,2.481,6.362,2.481s-2.822-9.688,0.756-9.818
									c3.579-0.13,6.787,8.576,6.787,8.576s-1.768-7.28,3.267-5.686c5.035,1.594,5.348,6.973,5.348,6.973
									s13.194,0.832,17.257,8.156c0,0,4.959-2.055,5.869,1.238c0.909,3.293-1.709,3.626-1.709,3.626s4.059,0.396,2.092,3.842
									c-1.967,3.446-3.344,2.093-3.344,2.093s1.91,2.089-1.073,9.56c-2.983,7.472-9.884,7.624-9.884,7.624L361.567,256.238z"/>
							</g>
							<g>
								<g>
									<path style="fill:#FFA07F;" d="M390.875,268.995c-0.097,0.756-0.226,1.449-0.394,2.101
										c-0.387,1.509-0.971,2.795-1.811,4.089c-1.107,1.704-2.658,3.427-4.784,5.688c-3.34,3.55-8.296,4.486-12.932,3.981
										c-12.313-1.339-12.493-9.853-10.066-22.413c1.509-7.798-0.225-12.409,2.081-15.247l0.004,0
										c0.147-0.127,0.298-0.249,0.448-0.368c3.581-2.871,8.185-4.162,12.76-3.748c0.882,0.081,1.72,0.185,2.523,0.314
										c0.183,0.024,0.364,0.054,0.542,0.088c0.075,0.01,0.15,0.023,0.221,0.039c0.203,0.033,0.403,0.07,0.601,0.114
										c0.142,0.025,0.284,0.055,0.422,0.087c0.323,0.067,0.634,0.14,0.937,0.215c9.692,2.44,11.472,8.706,11.158,14.659
										C392.372,262.641,391.19,266.541,390.875,268.995z"/>
								</g>
							</g>
							<g>
								<g>
									<path style="fill:#DF5B66;" d="M360.327,249.117c0,0,0.1,3.209,0.957,3.39c0.858,0.181,3.398-5.305,4.976-5.149
										c1.578,0.156,1.891,2.347,4.226,2.663c2.336,0.316,2.029-2.848,7.245-1.128c5.216,1.721,0.082,5.487,3.545,8.796
										c3.464,3.309-1.022,7.706,2.468,8.351c3.49,0.645,9.43-0.074,10.041-6.763c0.611-6.69-4.913-18.763-19.652-18.227
										C362.062,241.488,360.327,249.117,360.327,249.117z"/>
								</g>
							</g>
							<g>
								<g>
									<path style="fill:#343737;" d="M369.305,259.853c-1.168,1.352-2.336,2.703-3.504,4.055
										c-0.172,0.199-0.183,0.512,0.021,0.698c0.637,0.578,1.189,1.204,1.678,1.914c0.359,0.522,1.198,0.002,0.837-0.524
										c-0.536-0.779-1.137-1.473-1.838-2.109c0.007,0.233,0.014,0.465,0.021,0.698c1.168-1.352,2.336-2.703,3.504-4.055
										C370.439,260.049,369.721,259.37,369.305,259.853L369.305,259.853z"/>
								</g>
							</g>
							<g>
								<g>
									<path style="fill:#343737;" d="M371.752,262.026c-0.009,0.671,0.392,1.221,0.895,1.228
										c0.503,0.007,0.919-0.532,0.928-1.203c0.009-0.671-0.391-1.221-0.895-1.228
										C372.177,260.816,371.762,261.355,371.752,262.026z"/>
								</g>
							</g>
							<g>
								<g>
									<path style="fill:#343737;" d="M363.692,261.297c-0.009,0.671,0.391,1.221,0.895,1.228
										c0.503,0.007,0.919-0.531,0.928-1.203c0.009-0.671-0.391-1.221-0.895-1.228S363.701,260.625,363.692,261.297z"/>
								</g>
							</g>
							<g>
								<g>
									<path style="fill:#FF7D6F;" d="M378.085,266.424c-0.087,0.674-1.205,1.085-2.498,0.919
										c-1.293-0.166-2.271-0.847-2.184-1.521c0.087-0.674,1.205-1.085,2.498-0.919
										C377.194,265.07,378.172,265.75,378.085,266.424z"/>
								</g>
							</g>
							<g>
								<g>
									<path style="fill:#FF7D6F;" d="M360.322,265.607c0.393,0.342,1.036,0.61,1.782,0.705c1.291,0.166,2.41-0.244,2.497-0.92
										c0.087-0.673-0.892-1.353-2.183-1.519c-0.711-0.091-1.37-0.008-1.833,0.199L360.322,265.607z"/>
								</g>
							</g>
							<g>
								<g>
									<g>
										<path style="fill:#DF5B66;" d="M372.852,258.381c0.796-0.193,1.887-0.004,2.117,0.928c0.14,0.566,0.605,1.011,1.225,0.921
											c0.534-0.078,1.062-0.652,0.921-1.225c-0.501-2.031-2.506-3.268-4.568-2.769c-0.566,0.137-1.011,0.607-0.92,1.225
											C371.706,257.997,372.279,258.52,372.852,258.381L372.852,258.381z"/>
									</g>
								</g>
							</g>
							<g>
								<g>
									<g>
										<path style="fill:#DF5B66;" d="M363.726,258.111c0.711-0.653,1.438-0.883,2.362-0.514c1.295,0.519,2.133-1.48,0.838-1.999
											c-1.592-0.637-3.254-0.369-4.524,0.797C361.381,257.334,362.697,259.056,363.726,258.111L363.726,258.111z"/>
									</g>
								</g>
							</g>
						</g>
						<g>
							<g>
								<path style="fill:#343737;" d="M386.024,271.885c1.731,0.248,3.222-0.081,4.456-0.789c-0.387,1.509-0.971,2.795-1.811,4.089
									C387.526,274.426,386.603,273.358,386.024,271.885z"/>
							</g>
						</g>
						<g>
							<g>
								<path style="fill:#FFFFFF;" d="M364.374,269.115c0,0,2.916,0.057,8.643,0.201c0,0-1.152,6.038-5.268,5.485
									C364.258,274.332,364.374,269.115,364.374,269.115z"/>
							</g>
						</g>
						<g>
							<g>
								<g>
									<path style="fill:#FF7D6F;" d="M366.846,277.101c0.889,0.428,1.876,0.556,2.713-0.05c0.424-0.307-0.073-0.95-0.497-0.643
										c-0.598,0.433-1.288,0.239-1.902-0.056C366.687,276.124,366.376,276.875,366.846,277.101L366.846,277.101z"/>
								</g>
							</g>
						</g>
						<g>
							<g>
								<g>
									<path style="fill:#FFA07F;" d="M382.519,268.346c-0.408-2.057,0.238-4.178,1.601-5.772
										c1.766-2.064,4.939-5.182,7.503-4.483c3.769,1.027,3.784,4.508,2.958,7.944c-0.826,3.436-3.698,7.705-8.393,6.353
										C383.841,271.711,382.853,270.031,382.519,268.346z"/>
								</g>
							</g>
						</g>
						<g>
							<g>
								<g>
									<g>
										<path style="fill:#343737;" d="M387.169,268.316c-0.001-1.483,0.1-3.021,0.824-4.351c0.647-1.189,2.28-2.822,3.816-2.089
											c0.515,0.246,0.987-0.514,0.468-0.762c-1.48-0.706-3.069,0.014-4.142,1.141c-1.548,1.627-1.862,3.896-1.86,6.049
											C386.276,268.879,387.17,268.894,387.169,268.316L387.169,268.316z"/>
									</g>
								</g>
							</g>
						</g>
					</g>
					<g>
						<g>
							<path style="fill:#FFFFFF;" d="M360.649,295.065c-1.783,7.118-2.915,14.385-3.346,21.711
								c-0.309,5.252-1.111,12.204,2.298,16.711c3.184,4.211,9.184,3.868,13.171,1.022c5.052-3.607,7.637-10.212,10.04-15.691
								c3.283-7.487,5.928-15.23,8.568-22.961c0.206-0.602-0.756-0.83-0.96-0.233c-2.114,6.192-4.227,12.391-6.681,18.458
								c-2.243,5.545-4.564,11.643-8.27,16.404c-3.291,4.227-10.304,7.795-14.698,2.882c-3.616-4.043-2.778-11.039-2.516-15.998
								c0.394-7.449,1.542-14.837,3.354-22.072C361.763,294.681,360.803,294.449,360.649,295.065L360.649,295.065z"/>
						</g>
					</g>
				</g>
			</g>
		</g>
		<line style="fill:none;stroke:#343737;stroke-miterlimit:10;" x1="50.622" y1="435.438" x2="448.385" y2="435.438"/>
	</g>
</g>
</svg>
